<?xml version="1.0" encoding="utf-8"?>
<!-- Generator: Adobe Illustrator 25.0.0, SVG Export Plug-In . SVG Version: 6.00 Build 0)  -->
<svg version="1.1" id="Layer_1" xmlns="http://www.w3.org/2000/svg" xmlns:xlink="http://www.w3.org/1999/xlink" x="0px" y="0px"
	 viewBox="0 0 557.6 398.2" style="enable-background:new 0 0 557.6 398.2;" xml:space="preserve">
<style type="text/css">
	.st0{opacity:0.18;fill:#006937;enable-background:new    ;}
	.st1{opacity:0.3;fill:none;stroke:#006937;stroke-miterlimit:10;enable-background:new    ;}
	.st2{opacity:0.21;fill:none;stroke:#2C1E38;stroke-miterlimit:10;enable-background:new    ;}
	.st3{fill:#006937;}
	.st4{fill:#FDB922;}
	.st5{opacity:0.5;fill:#FDB922;enable-background:new    ;}
	.st6{opacity:0.5;fill:#FDB948;enable-background:new    ;}
	.st7{fill:#FFDE9E;}
	.st8{opacity:0.5;fill:#534B56;enable-background:new    ;}
	.st9{fill:#534B56;}
	.st10{opacity:0.5;}
	.st11{fill:#FFD178;}
	.st12{opacity:0.2;fill:#392313;enable-background:new    ;}
	.st13{fill:#E1EBE1;}
	.st14{opacity:0.5;fill:#E1EBE1;enable-background:new    ;}
	.st15{fill:#009247;}
	.st16{font-family:'Gotham-Bold';}
	.st17{font-size:5px;}
	.st18{fill:#BE7F56;}
	.st19{fill:#2C1E38;}
	.st20{fill:#5E5F5F;}
	.st21{fill:#282827;}
	.st22{fill:#FBB03A;}
	.st23{fill:#FFFFFF;}
	.st24{opacity:0.28;fill:#525352;enable-background:new    ;}
	.st25{opacity:0.39;fill:#006937;enable-background:new    ;}
	.st26{fill:#F15A26;}
	.st27{fill:#191919;}
	.st28{fill:none;stroke:#006937;stroke-width:2;stroke-miterlimit:10;}
	.st29{fill:#3F2F18;}
	.st30{fill:#544741;}
	.st31{fill:#412312;}
	.st32{opacity:0.3;fill:#006937;enable-background:new    ;}
	.st33{fill:#FDB948;}
	.st34{fill:#F79420;}
	.st35{fill:#A67C52;}
	.st36{fill:#D6C85B;}
	.st37{fill:none;stroke:#E6D783;stroke-linecap:round;stroke-linejoin:round;}
	.st38{fill:#D7BD28;}
	.st39{fill:none;stroke:#E7CE61;stroke-width:1.5;stroke-linecap:round;stroke-linejoin:round;}
	.st40{fill:#C9AA2D;}
	.st41{fill:none;stroke:#E1BF31;stroke-width:1.5;stroke-linecap:round;stroke-linejoin:round;}
	.st42{fill:#766834;}
	.st43{fill:#ACC137;}
	.st44{fill:#64918B;}
	.st45{fill:#6AABA2;}
	.st46{fill:#6ABCB2;}
	.st47{fill:#AFD6D1;}
	.st48{fill:#527874;}
	.st49{fill:none;stroke:#009247;stroke-width:0.5;stroke-miterlimit:10;}
	.st50{fill:none;stroke:#006937;stroke-width:0.5;stroke-miterlimit:10;}
	.st51{fill:#3BB54A;}
	.st52{fill:none;stroke:#0C3948;stroke-width:0.958;stroke-linecap:round;stroke-linejoin:round;}
	.st53{fill:#B23836;}
	.st54{fill:none;stroke:#8D2828;stroke-width:0.958;stroke-linecap:round;stroke-linejoin:round;}
	.st55{fill:#EE7672;}
	.st56{fill:#0C3948;}
	.st57{fill:none;stroke:#B23836;stroke-width:0.958;stroke-linecap:round;stroke-linejoin:round;}
	.st58{fill:#CF7B29;}
	.st59{fill:#A2948C;}
	.st60{fill:#998675;}
	.st61{fill:#FDC11A;}
	.st62{fill:#525352;}
	.st63{fill:#8C6339;}
	.st64{fill:#5F3916;}
	.st65{fill:#4D4D4E;}
	.st66{fill:none;stroke:#5F3916;stroke-miterlimit:10;}
	.st67{fill:#066E39;}
</style>
<g id="school_vector_1_" transform="translate(-141.473 -287)">
	<g id="Group_118_1_" transform="translate(175.518 299.73)">
		<path id="Path_644_1_" class="st0" d="M33.7,51.2c0,0,97.4-82.7,268.6-7.5c0,0,77.3,27.1,167.8-9c0,0,72.5,3,27.6,91
			c0,0-15.2,121.8-261.7,68.4c0,0-173.3,39.1-202.3-21.8c0,0-82.2-50.4,29.7-69.2C63.4,103.1,105.5,68.5,33.7,51.2z"/>
		<path id="Path_645_1_" class="st1" d="M422.2,96.9c0,0,2.2-6,6.7,0.8c0,0,5.2-8.9,11.9-3c0,0,6,6.7,10.4,1.5"/>
		<path id="Path_646_1_" class="st1" d="M270.3,101.4c0,0,1.3-3.4,3.9,0.4c0,0,3-5.1,6.8-1.7c0,0,3.4,3.8,6,0.9"/>
		<path id="Path_647_1_" class="st1" d="M363.1,144.5c0,0,1.3-3.4,3.9,0.4c0,0,3-5.1,6.8-1.7c0,0,3.4,3.9,6,0.9"/>
		<path id="Path_648_1_" class="st1" d="M472,120.5c0,0,2.7-7.3,8.2,0.9c0,0,6.4-10.9,14.6-3.6c0,0,7.3,8.2,12.7,1.8"/>
		<path id="Path_649_1_" class="st1" d="M142.9,46.9c0,0,1.3-3.4,3.8,0.4c0,0,3-5.1,6.8-1.7c0,0,3.4,3.9,6,0.9"/>
	</g>
	<path id="Path_1657_1_" class="st2" d="M156.2,585.4c0,0,0.4-0.1,1.1-0.3c2.8-0.6,10.6-2,17.1,0.3c1.3,0.4,2.5,1,3.6,1.8
		c0,0,2.6,2.3-4.6,0.1c0,0-23.1,1.1-8.4-1.1c0,0,1.6,0.2,3.6,0.5c3.9,0.7,9.4,2,8.1,3.6c0,0-11.3-4-17.6-2.6c-0.5,0.1-1,0.3-1.4,0.4
		c3.1,0.9,6.2,1.6,9.3,2.2c2.3,0.2,4.6,0.2,6.8,0c0,0-11.3,1.7-17,2.3c-1.9,0.2-3.2,0.3-3.2,0.1v-7.2l1.5-2.3l14.2,5.8h-3.3
		l-13.2,1.8l17.2,0.3l12.9-1c0,0-4.2-2.2-3.3-2.2s13.4,0.2,13.4,0.2s-8.6-2.1-12.2-2.7c-0.4-0.1-0.9-0.1-1.3-0.2
		c-1.8,0-14.4-0.4-16.3,0s-10.6-0.3-11.1,0.2c-1.3,0.9-2.6,1.7-4,2.5c0,0,13.5,0.1,15.7,0.5s16.6,1.1,16.8,1.5s0.8,1.8,0.8,1.8
		l-27.7,0.2c0,0-3.5-8.3-1.8-8.5s25.4-0.3,25.4-0.3l4.8,0.5c0,0-7.3,3.5-12.9,3.5s-21.5,2.8-18.9,3.7c3.8,1,7.6,1.6,11.5,2
		c1.8,0.2,5,0.3,7.6,0.5c2.4,0.1,4.3,0.2,4.3,0.2h8.8"/>
	<g id="Group_119_1_" transform="translate(-500 287)">
		<path id="Path_317_1_" class="st3" d="M1103.6,82.4c0,0,10.1-8.8,8.1,5.8c0,0,18.8,6.5,2.3,12.3c0,0,9.1,1.3-1.9,7.1l-0.7,2.6
			H1100l2.9-28.5L1103.6,82.4z"/>
		<path id="Path_318_1_" class="st3" d="M883.1,110.4c0,0-10.1-8.7,4.6-8.9c0,0,3.7-19.6,11.9-4c0,0,0-9.2,7.4,0.9l2.7,0.3l1.7,11.2
			l-28.6,1.3L883.1,110.4z"/>
		<g id="Group_426_1_" transform="translate(894.633)">
			<g id="Group_424_1_">
				<g id="Group_339_1_" transform="translate(0 21.714)">
					<g id="Group_338_1_">
						<g id="Group_299_1_" transform="translate(0.23 6.468)">
							<g id="Group_296_1_" transform="translate(2.867)">
								<rect id="Rectangle_158_1_" x="4.6" y="12.1" class="st4" width="78.3" height="69.8"/>
								<rect id="Rectangle_159_1_" x="4.6" y="67.3" class="st4" width="78.3" height="14.7"/>
							</g>
							<g id="Group_298_1_" transform="translate(0 28.548)">
								<rect id="Rectangle_160_1_" x="7.5" y="17.1" class="st5" width="78.3" height="1.4"/>
								<g id="Group_297_1_">
									<rect id="Rectangle_161_1_" x="4.6" y="12.1" class="st4" width="82.2" height="5.1"/>
									<rect id="Rectangle_162_1_" x="4.6" y="12.1" class="st5" width="82.2" height="1.7"/>
								</g>
							</g>
						</g>
						<g id="Group_304_1_">
							<g id="Group_301_1_">
								<rect id="Rectangle_163_1_" x="7.7" y="18.6" class="st6" width="78.3" height="3.5"/>
								<g id="Group_300_1_">
									<path id="Path_319_1_" class="st7" d="M78.6,20.8H4.6l9.9-8.7h64.1V20.8z"/>
									<path id="Path_320_1_" class="st8" d="M78.6,12.1v1.6H14.5l-8.1,7.1H4.6l9.9-8.7H78.6z"/>
								</g>
							</g>
							<g id="Group_303_1_" transform="translate(0.093 10.601)">
								<rect id="Rectangle_164_1_" x="7.6" y="13.3" class="st6" width="78.3" height="1"/>
								<g id="Group_302_1_">
									<rect id="Rectangle_165_1_" x="4.6" y="12.1" class="st8" width="73.8" height="1.2"/>
									<rect id="Rectangle_166_1_" x="4.6" y="12.1" class="st7" width="73.8" height="0.5"/>
								</g>
							</g>
						</g>
						<g id="Group_337_1_" transform="translate(7.914 13.414)">
							<g id="Group_320_1_">
								<g id="Group_309_1_">
									<rect id="Rectangle_167_1_" x="4.6" y="31.6" class="st6" width="13.2" height="1.1"/>
									<g id="Group_308_1_" transform="translate(1.276)">
										<rect id="Rectangle_168_1_" x="4.6" y="12.1" class="st7" width="10.6" height="18.2"/>
										<g id="Group_305_1_" transform="translate(1.053 0.909)">
											<rect id="Rectangle_169_1_" x="4.6" y="12.1" class="st9" width="8.5" height="16.4"/>
										</g>
										<g id="Group_306_1_" transform="translate(1.053 0.909)" class="st10">
											<path id="Path_321_1_" class="st9" d="M13.1,12.7v1.9l-8.5,8.5v-1.9L13.1,12.7z"/>
											<path id="Path_322_1_" class="st9" d="M7.6,12.1L4.6,15v-1.9l1.1-1H7.6z"/>
											<path id="Path_323_1_" class="st9" d="M13.1,19.8v4.5l-4.2,4.2H4.6v-0.2L13.1,19.8z"/>
										</g>
										<rect id="Rectangle_170_1_" x="9.6" y="12.6" class="st7" width="0.6" height="17.3"/>
										<g id="Group_307_1_" transform="translate(0.38 5.185)">
											<rect id="Rectangle_171_1_" x="4.6" y="12.1" class="st7" width="10" height="0.6"/>
											<rect id="Rectangle_172_1_" x="4.6" y="19.4" class="st7" width="10" height="0.6"/>
										</g>
									</g>
									<rect id="Rectangle_173_1_" x="4.6" y="29.7" class="st11" width="13.2" height="2"/>
								</g>
								<g id="Group_314_1_" transform="translate(23.213)">
									<rect id="Rectangle_174_1_" x="4.6" y="31.6" class="st6" width="13.2" height="1.1"/>
									<g id="Group_313_1_" transform="translate(1.276)">
										<rect id="Rectangle_175_1_" x="4.6" y="12.1" class="st7" width="10.6" height="18.2"/>
										<g id="Group_310_1_" transform="translate(1.053 0.909)">
											<rect id="Rectangle_176_1_" x="4.6" y="12.1" class="st9" width="8.5" height="16.4"/>
										</g>
										<g id="Group_311_1_" transform="translate(1.053 0.909)" class="st10">
											<path id="Path_324_1_" class="st9" d="M13.1,12.7v1.9l-8.5,8.5v-1.9L13.1,12.7z"/>
											<path id="Path_325_1_" class="st9" d="M7.6,12.1L4.6,15v-1.9l1.1-1H7.6z"/>
											<path id="Path_326_1_" class="st9" d="M13.1,19.8v4.5l-4.2,4.2H4.6v-0.2L13.1,19.8z"/>
										</g>
										<rect id="Rectangle_177_1_" x="9.6" y="12.6" class="st7" width="0.6" height="17.3"/>
										<g id="Group_312_1_" transform="translate(0.38 5.185)">
											<rect id="Rectangle_178_1_" x="4.6" y="12.1" class="st7" width="10" height="0.6"/>
											<rect id="Rectangle_179_1_" x="4.6" y="19.4" class="st7" width="10" height="0.6"/>
										</g>
									</g>
									<rect id="Rectangle_180_1_" x="4.6" y="29.7" class="st11" width="13.2" height="2"/>
								</g>
								<g id="Group_319_1_" transform="translate(46.425)">
									<rect id="Rectangle_181_1_" x="4.6" y="31.6" class="st6" width="13.2" height="1.1"/>
									<g id="Group_318_1_" transform="translate(1.276)">
										<rect id="Rectangle_182_1_" x="4.6" y="12.1" class="st7" width="10.6" height="18.2"/>
										<g id="Group_315_1_" transform="translate(1.053 0.909)">
											<rect id="Rectangle_183_1_" x="4.6" y="12.1" class="st9" width="8.5" height="16.4"/>
										</g>
										<g id="Group_316_1_" transform="translate(1.053 0.909)" class="st10">
											<path id="Path_327_1_" class="st9" d="M13.1,12.7v1.9l-8.5,8.5v-1.9L13.1,12.7z"/>
											<path id="Path_328_1_" class="st9" d="M7.6,12.1L4.6,15v-1.9l1.1-1H7.6z"/>
											<path id="Path_329_1_" class="st9" d="M13.1,19.8v4.5l-4.2,4.2H4.6v-0.2L13.1,19.8z"/>
										</g>
										<rect id="Rectangle_184_1_" x="9.6" y="12.6" class="st7" width="0.6" height="17.3"/>
										<g id="Group_317_1_" transform="translate(0.38 5.185)">
											<rect id="Rectangle_185_1_" x="4.6" y="12.1" class="st7" width="10" height="0.6"/>
											<rect id="Rectangle_186_1_" x="4.6" y="19.4" class="st7" width="10" height="0.6"/>
										</g>
									</g>
									<rect id="Rectangle_187_1_" x="4.6" y="29.7" class="st11" width="13.2" height="2"/>
								</g>
							</g>
							<g id="Group_336_1_" transform="translate(0 27.961)">
								<g id="Group_325_1_">
									<rect id="Rectangle_188_1_" x="4.6" y="31.6" class="st6" width="13.2" height="1.1"/>
									<g id="Group_324_1_" transform="translate(1.276)">
										<rect id="Rectangle_189_1_" x="4.6" y="12.1" class="st7" width="10.6" height="18.2"/>
										<g id="Group_321_1_" transform="translate(1.053 0.909)">
											<rect id="Rectangle_190_1_" x="4.6" y="12.1" class="st9" width="8.5" height="16.4"/>
										</g>
										<g id="Group_322_1_" transform="translate(1.053 0.909)" class="st10">
											<path id="Path_330_1_" class="st9" d="M13.1,12.7v1.9l-8.5,8.5v-1.9L13.1,12.7z"/>
											<path id="Path_331_1_" class="st9" d="M7.6,12.1L4.6,15v-1.9l1.1-1H7.6z"/>
											<path id="Path_332_1_" class="st9" d="M13.1,19.8v4.5l-4.2,4.2H4.6v-0.2L13.1,19.8z"/>
										</g>
										<rect id="Rectangle_191_1_" x="9.6" y="12.6" class="st7" width="0.6" height="17.3"/>
										<g id="Group_323_1_" transform="translate(0.38 5.185)">
											<rect id="Rectangle_192_1_" x="4.6" y="12.1" class="st7" width="10" height="0.6"/>
											<rect id="Rectangle_193_1_" x="4.6" y="19.4" class="st7" width="10" height="0.6"/>
										</g>
									</g>
									<rect id="Rectangle_194_1_" x="4.6" y="29.7" class="st11" width="13.2" height="2"/>
								</g>
								<g id="Group_330_1_" transform="translate(23.213)">
									<rect id="Rectangle_195_1_" x="4.6" y="31.6" class="st6" width="13.2" height="1.1"/>
									<g id="Group_329_1_" transform="translate(1.276)">
										<rect id="Rectangle_196_1_" x="4.6" y="12.1" class="st7" width="10.6" height="18.2"/>
										<g id="Group_326_1_" transform="translate(1.053 0.909)">
											<rect id="Rectangle_197_1_" x="4.6" y="12.1" class="st9" width="8.5" height="16.4"/>
										</g>
										<g id="Group_327_1_" transform="translate(1.053 0.909)" class="st10">
											<path id="Path_333_1_" class="st9" d="M13.1,12.7v1.9l-8.5,8.5v-1.9L13.1,12.7z"/>
											<path id="Path_334_1_" class="st9" d="M7.6,12.1L4.6,15v-1.9l1.1-1H7.6z"/>
											<path id="Path_335_1_" class="st9" d="M13.1,19.8v4.5l-4.2,4.2H4.6v-0.2L13.1,19.8z"/>
										</g>
										<rect id="Rectangle_198_1_" x="9.6" y="12.6" class="st7" width="0.6" height="17.3"/>
										<g id="Group_328_1_" transform="translate(0.38 5.185)">
											<rect id="Rectangle_199_1_" x="4.6" y="12.1" class="st7" width="10" height="0.6"/>
											<rect id="Rectangle_200_1_" x="4.6" y="19.4" class="st7" width="10" height="0.6"/>
										</g>
									</g>
									<rect id="Rectangle_201_1_" x="4.6" y="29.7" class="st11" width="13.2" height="2"/>
								</g>
								<g id="Group_335_1_" transform="translate(46.425)">
									<rect id="Rectangle_202_1_" x="4.6" y="31.6" class="st6" width="13.2" height="1.1"/>
									<g id="Group_334_1_" transform="translate(1.276)">
										<rect id="Rectangle_203_1_" x="4.6" y="12.1" class="st7" width="10.6" height="18.2"/>
										<g id="Group_331_1_" transform="translate(1.053 0.909)">
											<rect id="Rectangle_204_1_" x="4.6" y="12.1" class="st9" width="8.5" height="16.4"/>
										</g>
										<g id="Group_332_1_" transform="translate(1.053 0.909)" class="st10">
											<path id="Path_336_1_" class="st9" d="M13.1,12.7v1.9l-8.5,8.5v-1.9L13.1,12.7z"/>
											<path id="Path_337_1_" class="st9" d="M7.6,12.1L4.6,15v-1.9l1.1-1H7.6z"/>
											<path id="Path_338_1_" class="st9" d="M13.1,19.8v4.5l-4.2,4.2H4.6v-0.2L13.1,19.8z"/>
										</g>
										<rect id="Rectangle_205_1_" x="9.6" y="12.6" class="st7" width="0.6" height="17.3"/>
										<g id="Group_333_1_" transform="translate(0.38 5.185)">
											<rect id="Rectangle_206_1_" x="4.6" y="12.1" class="st7" width="10" height="0.6"/>
											<rect id="Rectangle_207_1_" x="4.6" y="19.4" class="st7" width="10" height="0.6"/>
										</g>
									</g>
									<rect id="Rectangle_208_1_" x="4.6" y="29.7" class="st11" width="13.2" height="2"/>
								</g>
							</g>
						</g>
					</g>
					<path id="Path_339_1_" class="st12" d="M80.7,48.2h1.5v40.2h-6.5V48.2h-1.5v-5.1h1.5v-31h6.5v6.5h0v24.5h-1.5V48.2z"/>
				</g>
				<g id="Group_383_1_" transform="translate(126.746 21.714)">
					<g id="Group_382_1_">
						<g id="Group_343_1_" transform="translate(0 6.468)">
							<g id="Group_340_1_" transform="translate(0.976)">
								<rect id="Rectangle_209_1_" x="4.6" y="12.1" class="st4" width="78.3" height="69.8"/>
								<rect id="Rectangle_210_1_" x="4.6" y="67.3" class="st4" width="78.3" height="14.7"/>
							</g>
							<g id="Group_342_1_" transform="translate(0 28.548)">
								<rect id="Rectangle_211_1_" x="5.6" y="17.1" class="st5" width="78.3" height="1.4"/>
								<g id="Group_341_1_">
									<rect id="Rectangle_212_1_" x="4.6" y="12.1" class="st4" width="82.2" height="5.1"/>
									<rect id="Rectangle_213_1_" x="4.6" y="12.1" class="st5" width="82.2" height="1.7"/>
								</g>
							</g>
						</g>
						<g id="Group_348_1_" transform="translate(0.976)">
							<g id="Group_345_1_">
								<rect id="Rectangle_214_1_" x="4.6" y="18.6" class="st6" width="78.3" height="3.5"/>
								<g id="Group_344_1_" transform="translate(7.479)">
									<path id="Path_340_1_" class="st7" d="M4.6,20.8h73.9l-9.9-8.7H4.6V20.8z"/>
									<path id="Path_341_1_" class="st8" d="M4.6,12.1v1.6h64.1l8.1,7.1h1.8l-9.9-8.7H4.6z"/>
								</g>
							</g>
							<g id="Group_347_1_" transform="translate(0 10.601)">
								<rect id="Rectangle_215_1_" x="4.6" y="13.3" class="st6" width="78.3" height="1"/>
								<g id="Group_346_1_" transform="translate(7.488)">
									<rect id="Rectangle_216_1_" x="4.6" y="12.1" class="st8" width="73.8" height="1.2"/>
									<rect id="Rectangle_217_1_" x="4.6" y="12.1" class="st7" width="73.8" height="0.5"/>
								</g>
							</g>
						</g>
						<g id="Group_381_1_" transform="translate(14.882 13.414)">
							<g id="Group_364_1_">
								<g id="Group_353_1_" transform="translate(46.425)">
									<rect id="Rectangle_218_1_" x="4.6" y="31.6" class="st6" width="13.2" height="1.1"/>
									<g id="Group_352_1_" transform="translate(1.276)">
										<rect id="Rectangle_219_1_" x="4.6" y="12.1" class="st7" width="10.6" height="18.2"/>
										<g id="Group_349_1_" transform="translate(1.053 0.909)">
											<rect id="Rectangle_220_1_" x="4.6" y="12.1" class="st9" width="8.5" height="16.4"/>
										</g>
										<g id="Group_350_1_" transform="translate(1.053 0.909)" class="st10">
											<path id="Path_342_1_" class="st9" d="M4.6,12.7v1.9l8.5,8.5v-1.9L4.6,12.7z"/>
											<path id="Path_343_1_" class="st9" d="M10.2,12.1l2.9,2.9v-1.9l-1.1-1H10.2z"/>
											<path id="Path_344_1_" class="st9" d="M4.6,19.8v4.5l4.2,4.2h4.3v-0.2L4.6,19.8z"/>
										</g>
										<rect id="Rectangle_221_1_" x="9.6" y="12.6" class="st7" width="0.6" height="17.3"/>
										<g id="Group_351_1_" transform="translate(0.271 5.185)">
											<rect id="Rectangle_222_1_" x="4.6" y="12.1" class="st7" width="10" height="0.6"/>
											<rect id="Rectangle_223_1_" x="4.6" y="19.4" class="st7" width="10" height="0.6"/>
										</g>
									</g>
									<rect id="Rectangle_224_1_" x="4.6" y="29.7" class="st11" width="13.2" height="2"/>
								</g>
								<g id="Group_358_1_" transform="translate(23.213)">
									<rect id="Rectangle_225_1_" x="4.6" y="31.6" class="st6" width="13.2" height="1.1"/>
									<g id="Group_357_1_" transform="translate(1.276)">
										<rect id="Rectangle_226_1_" x="4.6" y="12.1" class="st7" width="10.6" height="18.2"/>
										<g id="Group_354_1_" transform="translate(1.053 0.909)">
											<rect id="Rectangle_227_1_" x="4.6" y="12.1" class="st9" width="8.5" height="16.4"/>
										</g>
										<g id="Group_355_1_" transform="translate(1.053 0.909)" class="st10">
											<path id="Path_345_1_" class="st9" d="M4.6,12.7v1.9l8.5,8.5v-1.9L4.6,12.7z"/>
											<path id="Path_346_1_" class="st9" d="M10.2,12.1l2.9,2.9v-1.9l-1-1H10.2z"/>
											<path id="Path_347_1_" class="st9" d="M4.6,19.8v4.5l4.2,4.2h4.3v-0.2L4.6,19.8z"/>
										</g>
										<rect id="Rectangle_228_1_" x="9.6" y="12.6" class="st7" width="0.6" height="17.3"/>
										<g id="Group_356_1_" transform="translate(0.271 5.185)">
											<rect id="Rectangle_229_1_" x="4.6" y="12.1" class="st7" width="10" height="0.6"/>
											<rect id="Rectangle_230_1_" x="4.6" y="19.4" class="st7" width="10" height="0.6"/>
										</g>
									</g>
									<rect id="Rectangle_231_1_" x="4.6" y="29.7" class="st11" width="13.2" height="2"/>
								</g>
								<g id="Group_363_1_">
									<rect id="Rectangle_232_1_" x="4.6" y="31.6" class="st6" width="13.2" height="1.1"/>
									<g id="Group_362_1_" transform="translate(1.276)">
										<rect id="Rectangle_233_1_" x="4.6" y="12.1" class="st7" width="10.6" height="18.2"/>
										<g id="Group_359_1_" transform="translate(1.053 0.909)">
											<rect id="Rectangle_234_1_" x="4.6" y="12.1" class="st9" width="8.5" height="16.4"/>
										</g>
										<g id="Group_360_1_" transform="translate(1.053 0.909)" class="st10">
											<path id="Path_348_1_" class="st9" d="M4.6,12.7v1.9l8.5,8.5v-1.9L4.6,12.7z"/>
											<path id="Path_349_1_" class="st9" d="M10.2,12.1l2.9,2.9v-1.9l-1.1-1H10.2z"/>
											<path id="Path_350_1_" class="st9" d="M4.6,19.8v4.5l4.2,4.2h4.3v-0.2L4.6,19.8z"/>
										</g>
										<rect id="Rectangle_235_1_" x="9.6" y="12.6" class="st7" width="0.6" height="17.3"/>
										<g id="Group_361_1_" transform="translate(0.271 5.185)">
											<rect id="Rectangle_236_1_" x="4.6" y="12.1" class="st7" width="10" height="0.6"/>
											<rect id="Rectangle_237_1_" x="4.6" y="19.4" class="st7" width="10" height="0.6"/>
										</g>
									</g>
									<rect id="Rectangle_238_1_" x="4.6" y="29.7" class="st11" width="13.2" height="2"/>
								</g>
							</g>
							<g id="Group_380_1_" transform="translate(0 27.961)">
								<g id="Group_369_1_" transform="translate(46.425)">
									<rect id="Rectangle_239_1_" x="4.6" y="31.6" class="st6" width="13.2" height="1.1"/>
									<g id="Group_368_1_" transform="translate(1.276)">
										<rect id="Rectangle_240_1_" x="4.6" y="12.1" class="st7" width="10.6" height="18.2"/>
										<g id="Group_365_1_" transform="translate(1.053 0.909)">
											<rect id="Rectangle_241_1_" x="4.6" y="12.1" class="st9" width="8.5" height="16.4"/>
										</g>
										<g id="Group_366_1_" transform="translate(1.053 0.909)" class="st10">
											<path id="Path_351_1_" class="st9" d="M4.6,12.7v1.9l8.5,8.5v-1.9L4.6,12.7z"/>
											<path id="Path_352_1_" class="st9" d="M10.2,12.1l2.9,2.9v-1.9l-1.1-1H10.2z"/>
											<path id="Path_353_1_" class="st9" d="M4.6,19.8v4.5l4.2,4.2h4.3v-0.2L4.6,19.8z"/>
										</g>
										<rect id="Rectangle_242_1_" x="9.6" y="12.6" class="st7" width="0.6" height="17.3"/>
										<g id="Group_367_1_" transform="translate(0.271 5.185)">
											<rect id="Rectangle_243_1_" x="4.6" y="12.1" class="st7" width="10" height="0.6"/>
											<rect id="Rectangle_244_1_" x="4.6" y="19.4" class="st7" width="10" height="0.6"/>
										</g>
									</g>
									<rect id="Rectangle_245_1_" x="4.6" y="29.7" class="st11" width="13.2" height="2"/>
								</g>
								<g id="Group_374_1_" transform="translate(23.213)">
									<rect id="Rectangle_246_1_" x="4.6" y="31.6" class="st6" width="13.2" height="1.1"/>
									<g id="Group_373_1_" transform="translate(1.276)">
										<rect id="Rectangle_247_1_" x="4.6" y="12.1" class="st7" width="10.6" height="18.2"/>
										<g id="Group_370_1_" transform="translate(1.053 0.909)">
											<rect id="Rectangle_248_1_" x="4.6" y="12.1" class="st9" width="8.5" height="16.4"/>
										</g>
										<g id="Group_371_1_" transform="translate(1.053 0.909)" class="st10">
											<path id="Path_354_1_" class="st9" d="M4.6,12.7v1.9l8.5,8.5v-1.9L4.6,12.7z"/>
											<path id="Path_355_1_" class="st9" d="M10.2,12.1l2.9,2.9v-1.9l-1-1H10.2z"/>
											<path id="Path_356_1_" class="st9" d="M4.6,19.8v4.5l4.2,4.2h4.3v-0.2L4.6,19.8z"/>
										</g>
										<rect id="Rectangle_249_1_" x="9.6" y="12.6" class="st7" width="0.6" height="17.3"/>
										<g id="Group_372_1_" transform="translate(0.271 5.185)">
											<rect id="Rectangle_250_1_" x="4.6" y="12.1" class="st7" width="10" height="0.6"/>
											<rect id="Rectangle_251_1_" x="4.6" y="19.4" class="st7" width="10" height="0.6"/>
										</g>
									</g>
									<rect id="Rectangle_252_1_" x="4.6" y="29.7" class="st11" width="13.2" height="2"/>
								</g>
								<g id="Group_379_1_">
									<rect id="Rectangle_253_1_" x="4.6" y="31.6" class="st6" width="13.2" height="1.1"/>
									<g id="Group_378_1_" transform="translate(1.276)">
										<rect id="Rectangle_254_1_" x="4.6" y="12.1" class="st7" width="10.6" height="18.2"/>
										<g id="Group_375_1_" transform="translate(1.053 0.909)">
											<rect id="Rectangle_255_1_" x="4.6" y="12.1" class="st9" width="8.5" height="16.4"/>
										</g>
										<g id="Group_376_1_" transform="translate(1.053 0.909)" class="st10">
											<path id="Path_357_1_" class="st9" d="M4.6,12.7v1.9l8.5,8.5v-1.9L4.6,12.7z"/>
											<path id="Path_358_1_" class="st9" d="M10.2,12.1l2.9,2.9v-1.9l-1.1-1H10.2z"/>
											<path id="Path_359_1_" class="st9" d="M4.6,19.8v4.5l4.2,4.2h4.3v-0.2L4.6,19.8z"/>
										</g>
										<rect id="Rectangle_256_1_" x="9.6" y="12.6" class="st7" width="0.6" height="17.3"/>
										<g id="Group_377_1_" transform="translate(0.271 5.185)">
											<rect id="Rectangle_257_1_" x="4.6" y="12.1" class="st7" width="10" height="0.6"/>
											<rect id="Rectangle_258_1_" x="4.6" y="19.4" class="st7" width="10" height="0.6"/>
										</g>
									</g>
									<rect id="Rectangle_259_1_" x="4.6" y="29.7" class="st11" width="13.2" height="2"/>
								</g>
							</g>
						</g>
					</g>
					<path id="Path_360_1_" class="st12" d="M11,48.2H9.4v40.2H16V48.2h1.5v-5.1H16v-31H9.4v6.5h0v24.5H11V48.2z"/>
				</g>
				<g id="Group_423_1_" transform="translate(72.416)">
					<g id="Group_391_1_">
						<g id="Group_387_1_">
							<g id="Group_384_1_" transform="translate(1.535)">
								<rect id="Rectangle_260_1_" x="4.6" y="12.1" class="st4" width="61.1" height="98.1"/>
								<rect id="Rectangle_261_1_" x="4.6" y="92.6" class="st4" width="61.1" height="17.6"/>
							</g>
							<g id="Group_386_1_" transform="translate(0 52.704)">
								<rect id="Rectangle_262_1_" x="6.2" y="17" class="st5" width="61.1" height="1.8"/>
								<g id="Group_385_1_">
									<rect id="Rectangle_263_1_" x="4.6" y="12.1" class="st4" width="64.2" height="5.1"/>
									<rect id="Rectangle_264_1_" x="4.6" y="12.1" class="st5" width="64.2" height="1.5"/>
								</g>
							</g>
						</g>
						<g id="Group_390_1_" transform="translate(29.443 14.112)">
							<g id="Group_389_1_">
								<g id="Group_388_1_">
								</g>
							</g>
						</g>
					</g>
					<g id="Group_394_1_" transform="translate(5.397 90.647)">
						<g id="Group_392_1_" transform="translate(0 3.664)">
							<rect id="Rectangle_265_1_" x="4.6" y="12.1" class="st13" width="53.4" height="3.8"/>
							<rect id="Rectangle_266_1_" x="4.6" y="12.1" class="st14" width="53.4" height="1.2"/>
						</g>
						<g id="Group_393_1_" transform="translate(4.937)">
							<rect id="Rectangle_267_1_" x="4.6" y="12.1" class="st13" width="43.5" height="3.8"/>
							<rect id="Rectangle_268_1_" x="4.6" y="12.1" class="st14" width="43.5" height="0.9"/>
							<rect id="Rectangle_269_1_" x="4.6" y="14.9" class="st14" width="43.5" height="1"/>
						</g>
					</g>
					<g id="Group_417_1_" transform="translate(8.764 30.183)">
						<g id="Group_400_1_" transform="translate(1.681 34.874)">
							<g id="Group_395_1_">
								<rect id="Rectangle_270_1_" x="4.6" y="12.1" class="st7" width="21" height="25.6"/>
								<rect id="Rectangle_271_1_" x="26.9" y="12.1" class="st7" width="21" height="25.6"/>
							</g>
							<g id="Group_399_1_" transform="translate(1.283 1.685)">
								<g id="Group_396_1_">
									<rect id="Rectangle_272_1_" x="4.6" y="12.1" class="st9" width="8.1" height="22.2"/>
									<rect id="Rectangle_273_1_" x="15" y="12.1" class="st9" width="8.1" height="22.2"/>
								</g>
								<g id="Group_397_1_" transform="translate(22.312)">
									<rect id="Rectangle_274_1_" x="4.6" y="12.1" class="st9" width="8.1" height="22.2"/>
									<rect id="Rectangle_275_1_" x="15" y="12.1" class="st9" width="8.1" height="22.2"/>
								</g>
								<g id="Group_398_1_" class="st10">
									<path id="Path_365_1_" class="st9" d="M11.1,12.1h1.6v4.1l-8.1,8.1v-5.7L11.1,12.1z"/>
									<path id="Path_366_1_" class="st9" d="M16.8,12.1L15,13.9v-1.8H16.8z"/>
									<path id="Path_367_1_" class="st9" d="M5.6,34.3l7.1-7.1v5.7l-1.4,1.4L5.6,34.3L5.6,34.3z"/>
									<path id="Path_368_1_" class="st9" d="M15,24.9l8.1-8.1v5.7L15,30.6V24.9z"/>
									<path id="Path_369_1_" class="st9" d="M33.5,12.1l-6.6,6.6V13l0.9-0.8L33.5,12.1L33.5,12.1z"/>
									<path id="Path_370_1_" class="st9" d="M23,32.1v2.2h-2.2L23,32.1z"/>
									<path id="Path_371_1_" class="st9" d="M26.9,28.2l8.1-8.1v3.4l-8.1,8.1V28.2z"/>
									<path id="Path_372_1_" class="st9" d="M45.4,12.1v1.1l-8.1,8.1v-3.4l5.7-5.7H45.4z"/>
									<path id="Path_373_1_" class="st9" d="M35,30.1v4.2h-4.2L35,30.1z"/>
									<path id="Path_374_1_" class="st9" d="M45.4,19.8v9.3l-5.3,5.3h-2.8v-6.5L45.4,19.8z"/>
								</g>
							</g>
						</g>
						<g id="Group_416_1_">
							<g id="Group_405_1_">
								<rect id="Rectangle_276_1_" x="4.6" y="31.6" class="st6" width="13.2" height="1.1"/>
								<g id="Group_404_1_" transform="translate(1.276)">
									<rect id="Rectangle_277_1_" x="4.6" y="12.1" class="st7" width="10.6" height="18.2"/>
									<g id="Group_401_1_" transform="translate(1.053 0.909)">
										<rect id="Rectangle_278_1_" x="4.6" y="12.1" class="st9" width="8.5" height="16.4"/>
									</g>
									<g id="Group_402_1_" transform="translate(1.053 0.909)" class="st10">
										<path id="Path_375_1_" class="st9" d="M13.1,12.7v1.9l-8.5,8.5v-1.9L13.1,12.7z"/>
										<path id="Path_376_1_" class="st9" d="M7.6,12.1L4.6,15v-1.9l1.1-1H7.6z"/>
										<path id="Path_377_1_" class="st9" d="M13.1,19.8v4.5l-4.2,4.2H4.6v-0.2L13.1,19.8z"/>
									</g>
									<rect id="Rectangle_279_1_" x="9.6" y="12.6" class="st7" width="0.6" height="17.3"/>
									<g id="Group_403_1_" transform="translate(0.38 5.185)">
										<rect id="Rectangle_280_1_" x="4.6" y="12.1" class="st7" width="10" height="0.6"/>
										<rect id="Rectangle_281_1_" x="4.6" y="19.4" class="st7" width="10" height="0.6"/>
									</g>
								</g>
								<rect id="Rectangle_282_1_" x="4.6" y="29.7" class="st11" width="13.2" height="2"/>
							</g>
							<g id="Group_410_1_" transform="translate(16.75)">
								<rect id="Rectangle_283_1_" x="4.6" y="31.6" class="st6" width="13.2" height="1.1"/>
								<g id="Group_409_1_" transform="translate(1.276)">
									<rect id="Rectangle_284_1_" x="4.6" y="12.1" class="st7" width="10.6" height="18.2"/>
									<g id="Group_406_1_" transform="translate(1.053 0.909)">
										<rect id="Rectangle_285_1_" x="4.6" y="12.1" class="st9" width="8.5" height="16.4"/>
									</g>
									<g id="Group_407_1_" transform="translate(1.053 0.909)" class="st10">
										<path id="Path_378_1_" class="st9" d="M13.1,12.7v1.9l-8.5,8.5v-1.9L13.1,12.7z"/>
										<path id="Path_379_1_" class="st9" d="M7.6,12.1L4.6,15v-1.9l1.1-1H7.6z"/>
										<path id="Path_380_1_" class="st9" d="M13.1,19.8v4.5l-4.2,4.2H4.6v-0.2L13.1,19.8z"/>
									</g>
									<rect id="Rectangle_286_1_" x="9.6" y="12.6" class="st7" width="0.6" height="17.3"/>
									<g id="Group_408_1_" transform="translate(0.38 5.185)">
										<rect id="Rectangle_287_1_" x="4.6" y="12.1" class="st7" width="10" height="0.6"/>
										<rect id="Rectangle_288_1_" x="4.6" y="19.4" class="st7" width="10" height="0.6"/>
									</g>
								</g>
								<rect id="Rectangle_289_1_" x="4.6" y="29.7" class="st11" width="13.2" height="2"/>
							</g>
							<g id="Group_415_1_" transform="translate(33.5)">
								<rect id="Rectangle_290_1_" x="4.6" y="31.6" class="st6" width="13.2" height="1.1"/>
								<g id="Group_414_1_" transform="translate(1.276)">
									<rect id="Rectangle_291_1_" x="4.6" y="12.1" class="st7" width="10.6" height="18.2"/>
									<g id="Group_411_1_" transform="translate(1.053 0.909)">
										<rect id="Rectangle_292_1_" x="4.6" y="12.1" class="st9" width="8.5" height="16.4"/>
									</g>
									<g id="Group_412_1_" transform="translate(1.053 0.909)" class="st10">
										<path id="Path_381_1_" class="st9" d="M13.1,12.7v1.9l-8.5,8.5v-1.9L13.1,12.7z"/>
										<path id="Path_382_1_" class="st9" d="M7.6,12.1L4.6,15v-1.9l1.1-1H7.6z"/>
										<path id="Path_383_1_" class="st9" d="M13.1,19.8v4.5l-4.2,4.2H4.6v-0.2L13.1,19.8z"/>
									</g>
									<rect id="Rectangle_293_1_" x="9.6" y="12.6" class="st7" width="0.6" height="17.3"/>
									<g id="Group_413_1_" transform="translate(0.38 5.185)">
										<rect id="Rectangle_294_1_" x="4.6" y="12.1" class="st7" width="10" height="0.6"/>
										<rect id="Rectangle_295_1_" x="4.6" y="19.4" class="st7" width="10" height="0.6"/>
									</g>
								</g>
								<rect id="Rectangle_296_1_" x="4.6" y="29.7" class="st11" width="13.2" height="2"/>
							</g>
						</g>
					</g>
					<g id="Group_422_1_" transform="translate(0.193)">
						<g id="Group_419_1_" transform="translate(0 5.993)">
							<rect id="Rectangle_297_1_" x="6" y="12.5" class="st6" width="61.1" height="1.8"/>
							<g id="Group_418_1_">
								<rect id="Rectangle_298_1_" x="4.6" y="12.1" class="st8" width="63.8" height="1.2"/>
								<rect id="Rectangle_299_1_" x="4.6" y="12.1" class="st7" width="63.8" height="0.6"/>
							</g>
						</g>
						<g id="Group_421_1_">
							<rect id="Rectangle_300_1_" x="6" y="12.1" class="st6" width="61.1" height="4.3"/>
							<g id="Group_420_1_">
								<rect id="Rectangle_301_1_" x="4.6" y="12.1" class="st7" width="63.8" height="3.1"/>
								<rect id="Rectangle_302_1_" x="4.6" y="12.1" class="st8" width="63.8" height="1"/>
							</g>
						</g>
					</g>
				</g>
			</g>
			<g id="Group_425_1_" transform="translate(80.384 12.435)">
				<path id="Path_384_1_" class="st15" d="M5.9,16.2c-0.3-0.4-0.4-0.8-0.4-1.3c0.1-1.7,1.6-2.9,3.2-2.8c1.4,0,2.8,0.6,3.8,1.7l0,0
					c-1.2-0.7-2.4-1-3.8-1.1c-1-0.1-2,0.5-2.4,1.5c0.8-0.7,1.8-1.2,2.9-1.2c2.3,0,4.6,2,4.6,2c-1.2,0-2.4,0.4-3.3,1.2
					C10.3,16.5,9,17.9,8,17.9c-0.2,0-1.1-0.1-1.1-1l0-0.1c0.6,0.6,1.5,0.6,2.1,0.1c0,0,0.1-0.1,0.1-0.1c0.3-0.3,1.7-2,3.2-2.2
					c-1-0.6-2-0.9-3.1-0.9C7.7,13.8,6.4,14.8,5.9,16.2L5.9,16.2z"/>
				<path id="Path_385_1_" class="st15" d="M12.4,15.3c0,0.9-0.5,1.7-1.2,2.2c-0.7,0.6-1.7,0.7-2.5,0.3
					C10.3,17.8,11.7,16.8,12.4,15.3L12.4,15.3z"/>
				<path id="Path_386_1_" class="st15" d="M4.6,19.3c0.1-1.5,0.9-2.8,2.2-3.5c1.8-1.1,3.4-0.9,4.3-1.3c0,0-0.1,0.3-1.2,0.7
					c-0.9,0.3-1.8,0.7-2.6,1.1C6.2,17,5.2,18,4.6,19.3L4.6,19.3z"/>
			</g>
			<text transform="matrix(1 0 0 1 95.7492 29.5568)" class="st16 st17">TCF SCHOOL</text>
		</g>
		<path id="Path_387_1_" class="st2" d="M1136.3,108.6c0,0,0.3-0.1,0.8-0.2c2.1-0.5,7.9-1.5,12.8,0.2c1,0.3,1.9,0.8,2.7,1.3
			c0,0,2,1.8-3.5,0.1c0,0-17.4,0.8-6.3-0.8c0,0,1.2,0.1,2.7,0.4c2.9,0.5,7.1,1.5,6.1,2.7c0,0-8.5-3-13.3-2c-0.4,0.1-0.7,0.2-1.1,0.3
			c2.3,0.7,4.7,1.2,7,1.6c1.7,0.1,3.4,0.1,5.2,0c0,0-8.5,1.3-12.8,1.7c-0.8,0.2-1.6,0.2-2.4,0.1v-5.4l1.1-1.8l10.7,4.4h-2.5
			l-9.9,1.4l12.9,0.3l9.7-0.8c0,0-3.1-1.6-2.5-1.6s10,0.1,10,0.1s-6.4-1.6-9.2-2c-0.3-0.1-0.7-0.1-1-0.1c-1.4,0-10.8-0.3-12.2,0
			s-8-0.2-8.3,0.1c-1,0.7-2,1.3-3,1.9c0,0,10.1,0,11.8,0.4s12.5,0.9,12.6,1.1s0.6,1.4,0.6,1.4l-20.8,0.1c0,0-2.6-6.3-1.4-6.4
			s19.1-0.3,19.1-0.3l3.6,0.4c0,0-5.5,2.6-9.7,2.6s-16.2,2.1-14.2,2.8c2.8,0.7,5.7,1.2,8.7,1.5c1.3,0.1,3.7,0.3,5.7,0.4
			c1.8,0.1,3.2,0.1,3.2,0.1h6.7"/>
		<path id="Path_388_1_" class="st2" d="M742.3,101.3c0,0,0.1,0,0.3-0.1c1.7-0.4,3.5-0.4,5.2,0.1c0.4,0.1,0.8,0.3,1.1,0.5
			c0,0,0.8,0.7-1.4,0c0,0-7,0.3-2.5-0.3c0,0,0.5,0.1,1.1,0.2c1.2,0.2,2.8,0.6,2.4,1.1c0,0-3.4-1.2-5.3-0.8c-0.2,0-0.3,0.1-0.4,0.1
			c0.9,0.3,1.9,0.5,2.8,0.6c0.7,0.1,1.4,0.1,2.1,0c0,0-3.4,0.5-5.1,0.7c-0.3,0.1-0.6,0.1-1,0v-2.2l0.5-0.7l4.3,1.8h-1l-4,0.6
			l5.2,0.1l3.9-0.3c0,0-1.3-0.6-1-0.6s4,0.1,4,0.1s-2.6-0.6-3.7-0.8c-0.1,0-0.3,0-0.4-0.1c-0.5,0-4.3-0.1-4.9,0s-3.2-0.1-3.3,0.1
			c-0.4,0.3-0.8,0.5-1.2,0.8c0,0,4.1,0,4.7,0.2s5,0.3,5.1,0.4s0.3,0.6,0.3,0.6l-8.3,0.1c0,0-1-2.5-0.5-2.6s7.6-0.1,7.6-0.1l1.5,0.1
			c-1.2,0.6-2.5,0.9-3.9,1.1c-1.7,0-6.5,0.9-5.7,1.1c1.1,0.3,2.3,0.5,3.5,0.6c0.5,0.1,1.5,0.1,2.3,0.1c0.7,0,1.3,0.1,1.3,0.1h2.7"/>
		<path id="Path_389_1_" class="st1" d="M1088.4,131.1c0,0,1.7-4.5,5.1,0.6c0,0,3.9-6.7,9-2.2c0,0,4.5,5.1,7.8,1.1"/>
		<path id="Path_390_1_" class="st1" d="M974.2,134.6c0,0,1-2.6,2.9,0.3c0,0,2.3-3.9,5.1-1.3c0,0,2.6,2.9,4.5,0.6"/>
		<path id="Path_391_1_" class="st1" d="M1044,167c0,0,1-2.6,2.9,0.3c0,0,2.3-3.9,5.1-1.3c0,0,2.6,2.9,4.5,0.6"/>
		<path id="Path_392_1_" class="st1" d="M1040.5,158.1c0,0,2.1-5.5,6.2,0.7c0,0,4.8-8.2,10.9-2.7c0,0,5.5,6.2,9.6,1.4"/>
		<path id="Path_393_1_" class="st1" d="M878.3,93.6c0,0,1-2.6,2.9,0.3c0,0,2.3-3.9,5.1-1.3c0,0,2.6,2.9,4.5,0.6"/>
		<g id="Group_427_1_" transform="translate(735.257 57.166)">
			<path id="Path_394_1_" class="st18" d="M14.1,37.8l-0.7,7.5l0.7,0.5c0,0,0.2,1-1,0.7l-1-1.2l0.2-0.7v-3.4L11.1,37L14.1,37.8z"/>
			<path id="Path_395_1_" class="st18" d="M6.6,37.3l0.7,7.5l-0.7,0.5c0,0-0.2,1,1,0.7l1-1.2L8.3,44v-3.4l1.2-4.1L6.6,37.3z"/>
			<ellipse id="Ellipse_13_1_" class="st18" cx="10.3" cy="17.6" rx="3.6" ry="4.2"/>
			<path id="Path_396_1_" class="st19" d="M12.6,14.9L11.1,16l-5.2,0.4l0.9-2.4l-0.9-0.7h1.5l1.3-1.3l3.9,0.4l2.6,2.8v3L13,17.9
				v-1.5L12.6,14.9z"/>
			<ellipse id="Ellipse_14_1_" class="st18" cx="14" cy="18.1" rx="0.8" ry="0.9"/>
			<path id="Path_397_1_" class="st18" d="M11.7,20.9v1.7H9.8l0.4-1.7H11.7z"/>
			<ellipse id="Ellipse_15_1_" class="st18" cx="10.7" cy="23.7" rx="2.1" ry="1.7"/>
			<path id="Path_398_1_" class="st18" d="M11.6,22.2l3,1.4c0.3,0.1,0.5,0.4,0.6,0.6l1.5,5.4l-1.3,4.5l-1.1-0.4l0.4-4.5l-0.9-3.2
				v6.9H7l0.4-8.2c0,0,0-2.1,2.9-2.4"/>
			<path id="Path_399_1_" class="st18" d="M8.1,23.2l-3.4,3.5l2.2,4.1l0.6-1.7L6.5,27L8.7,25L8.1,23.2z"/>
			<path id="Path_400_1_" class="st20" d="M13.9,34.2l0.4,4.4c0,0-2.1-1.3-3.7,0L10,36.4l-0.4,2.1l-3.9-0.2l1.1-4.9
				C6.8,33.4,12.4,32.2,13.9,34.2z"/>
			<path id="Path_401_1_" class="st21" d="M13.2,22.9c0,0-0.2,3-2.6,3.2c0,0-2.2-0.7-1.4-3.7l-0.9,0.3c0,0,1,3.6-1,4.6l-0.9,7
				c0,0,4.7-0.9,7.7,0v-6.2c0,0-2.1-1.9-0.2-4.8L13.2,22.9z"/>
			<path id="Path_402_1_" class="st18" d="M15.4,34.1v1.5l-0.9,1.1l-0.6-1.1l0.4-1.1v-0.4l-0.4,0.9c0,0-0.4-0.3,0.2-1l0.4-0.7
				L15.4,34.1z"/>
		</g>
		<g id="Group_428_1_" transform="translate(1132.582 61.61)">
			<path id="Path_403_1_" class="st18" d="M15.3,41.2l-0.8,8.5l0.8,0.6c0,0,0.3,1.1-1.1,0.8l-1.1-1.4l0.3-0.8v-3.9L12,40.4
				L15.3,41.2z"/>
			<path id="Path_404_1_" class="st18" d="M6.8,40.7l0.8,8.5l-0.8,0.6c0,0-0.3,1.1,1.1,0.8L9,49.2l-0.3-0.8v-3.9l1.4-4.7L6.8,40.7z"
				/>
			<path id="Path_405_1_" class="st19" d="M14.8,16.1c0,0-1.8,4.4,0.1,6c0,0-1.3-0.3-0.9,0.9c0,0-1.6,0.3-0.6,1.4l2.5,0.8
				c0,0,0.9-2.2-0.9-1.9c0,0,1.9-0.3,1.3-1.9c0,0,1.6-1.6,0.9-2.8c0,0-0.3-3.9-1.7-4.2S14.8,16.1,14.8,16.1z"/>
			<ellipse id="Ellipse_16_1_" class="st18" cx="11.1" cy="18.3" rx="4" ry="4.8"/>
			<path id="Path_406_1_" class="st19" d="M13.6,15.3l-1.7,1.2L6.1,17l1-2.7l-1-0.7h1.7l1.5-1.5l4.4,0.5l2.9,3.2l-2.4,2.9V17
				L13.6,15.3z"/>
			<ellipse id="Ellipse_17_1_" class="st18" cx="15.2" cy="19" rx="0.9" ry="1"/>
			<path id="Path_407_1_" class="st18" d="M12.7,22.1v2h-2.2l0.5-2H12.7z"/>
			<ellipse id="Ellipse_18_1_" class="st18" cx="11.6" cy="25.3" rx="2.3" ry="2"/>
			<path id="Path_408_1_" class="st18" d="M12.5,23.5l3.4,1.6c0.3,0.2,0.6,0.4,0.7,0.7l1.7,6.1l-1.5,5.1l-1.2-0.5l0.5-5.1l-1-3.7
				v7.8H7.3l0.5-9.3c0,0,0-2.4,3.3-2.8"/>
			<path id="Path_409_1_" class="st18" d="M8.5,24.8l-3.9,4l2.5,4.7l0.7-1.9l-1-2.6l2.4-2.2L8.5,24.8z"/>
			<path id="Path_410_1_" class="st18" d="M16.8,37.1v1.7l-1,1.2l-0.7-1.2l0.5-1.2v-0.5l-0.5,1c0,0-0.5-0.3,0.2-1.1l0.5-0.8
				L16.8,37.1z"/>
			<path id="Path_411_1_" class="st22" d="M12.7,48.5h3.4c0.5-4.7,0.1-9.5-1.2-14H7.7c0,0-3.1,8.1-0.9,13.4l3.7,0.6l0.6-5.9
				L12.7,48.5z"/>
			<path id="Path_412_1_" class="st11" d="M9.3,23.6l-3.1,3.1l0.6,2.5l0.9-0.9L5.5,42.6L16.7,42l-1.6-12.9h2.3l-0.8-4.3l-2.9-0.7
				C13.9,24.1,9.9,26.1,9.3,23.6z"/>
			<path id="Path_413_1_" class="st23" d="M14.4,24.2l-2.3,5.3c0,0-0.9,1.9-2.2-0.3l-1.1-5.1l-2,1.1l2.8,8.4c0,0,0.9,1.3,2.5,0
				l4.4-9l-2.2-0.3L14.4,24.2z"/>
			<path id="Path_414_1_" class="st24" d="M13.3,28.6c0,0-1.6,4.1-3.7,1.9C9.6,30.4,11.4,33.3,13.3,28.6z"/>
			<path id="Path_415_1_" class="st24" d="M8,25.8c0,0,0.3,6.2,2.8,6.9C10.8,32.6,8.7,32,8,25.8z"/>
		</g>
		<path id="Path_416_1_" class="st18" d="M1219.1,118c0.1,0.7-0.4,1.3-1.1,1.4c-0.7,0.1-1.3-0.4-1.4-1.1c-0.1-0.6,0.3-1.1,0.8-1.3
			C1218.2,116.9,1218.9,117.3,1219.1,118"/>
		<rect id="Rectangle_303_1_" x="880.4" y="109.8" class="st25" width="229.6" height="4.1"/>
		<g id="Group_430_1_" transform="translate(1058.898 98.596)">
			<path id="Path_417_1_" class="st2" d="M12.7,42.6c0,0,0.4-0.1,1.1-0.3c2.7-0.6,10.3-1.9,16.7,0.3c1.3,0.4,2.4,1,3.5,1.7
				c0,0,2.6,2.3-4.5,0.1c0,0-22.5,1.1-8.2-1.1c0,0,1.6,0.2,3.5,0.5c3.8,0.7,9.2,1.9,7.9,3.5c0,0-11-3.9-17.2-2.6
				c-0.5,0.1-0.9,0.3-1.4,0.4c3,0.9,6,1.6,9.1,2.1c2.2,0.2,4.4,0.2,6.7,0c0,0-11,1.6-16.6,2.2c-1.9,0.2-3.1,0.3-3.1,0.1v-7l1.5-2.3
				l13.8,5.7h-3.3L9.3,47.9l16.8,0.3l12.5-1c0,0-4.1-2.1-3.3-2.1s13,0.2,13,0.2s-8.4-2-11.9-2.6c-0.4-0.1-0.9-0.1-1.3-0.2
				c-1.8,0-14-0.4-15.9,0S9,42.2,8.5,42.7c-1.3,0.9-2.6,1.7-3.9,2.4c0,0,13.1,0.1,15.4,0.5s16.2,1.1,16.4,1.4s0.8,1.8,0.8,1.8
				l-27,0.2c0,0-3.4-8.1-1.8-8.3s24.7-0.3,24.7-0.3l4.7,0.5c0,0-7.2,3.4-12.5,3.4s-21,2.8-18.4,3.6c3.7,0.9,7.4,1.6,11.2,1.9
				c1.7,0.2,4.8,0.3,7.4,0.5c2.3,0.1,4.2,0.2,4.2,0.2h8.6"/>
			<g id="Group_429_1_" transform="translate(13.884)">
				<path id="Path_418_1_" class="st19" d="M14.4,46.8l1.6,0.5v0.2h-2.1l-0.2-0.7L14.4,46.8z"/>
				<path id="Path_419_1_" class="st19" d="M5.7,46.7l1.4,1L7,47.9L5,47.2L5,46.5L5.7,46.7z"/>
				<path id="Path_420_1_" class="st23" d="M11.5,34l4.6,12.9h-2.9l-6-5.7v-8.4L11.5,34z"/>
				<path id="Path_421_1_" class="st23" d="M13,35.5L6.8,46.9l-2.2-0.2l0.9-6l0.5-6C6,34.8,11.8,32.1,13,35.5z"/>
				<path id="Path_422_1_" class="st26" d="M9.4,19.8c0,0,0.6,1.8,2.3,1.5l0.1,4l2,10.4c0,0-2.3-1.1-4.8,1.2l-3.3,0.5
					c0,0-1.9-12.7,2.2-18.6C7.8,18.8,9.1,18.2,9.4,19.8z"/>
				<path id="Path_423_1_" class="st18" d="M15.2,14.8c0.5,1,0.8,2.2,0.8,3.3l0.6,0.9c0,0-0.2,0.3-0.8,0c-0.6,1.2-2,1.9-3.3,1.6
					c0,0-4.4-2.7-2.9-5.6C9.5,15,11.3,11.4,15.2,14.8"/>
				<path id="Path_424_1_" class="st18" d="M11.9,19.8l-1.1,2.1L8.9,20l2-2.2L11.9,19.8z"/>
				<path id="Path_425_1_" class="st18" d="M8.3,22.6l0.8,4.7l2.6,3.3l1.3,0.9l0.6,1.1l-1.4,0.5l-0.9-1.4l0.2,1.2l-0.5-0.2L10.6,31
					L8,28.6l-1.5-5.4l2.5-1.2L8.3,22.6z"/>
				<path id="Path_426_1_" class="st22" d="M7.1,19.8c0,0-2.3,1.5-0.5,4.7c0.6-0.8,1.6-1.1,2.5-0.8C9.1,23.7,9.6,20.5,7.1,19.8z"/>
				<path id="Path_427_1_" class="st19" d="M15.6,15.8c-1.9,1.5-4.6,1.3-6.2-0.5l0.8,2.4l-1-1.2c0,0,1.6,2.2,0.4,4.1l-1.2,1.6
					L8.2,20l-1.2,1.6l-0.7,0.2L6,19.4H5.2L6,17.2l0.8-1.5l1.1-1.9c1.1-1.4,2.9-1.9,4.5-1.5C12.4,12.3,16.6,13.5,15.6,15.8z"/>
			</g>
			<path id="Path_428_1_" class="st27" d="M28.2,13.3c-1.7,0.4-3.3,1.1-4.8,2.1l-0.4-0.2c0,0,3.5-2.6,5-2.1L28.2,13.3z"/>
		</g>
		
			<ellipse id="Ellipse_19_1_" transform="matrix(0.9995 -3.189972e-02 3.189972e-02 0.9995 -2.063 35.766)" class="st0" cx="1119.9" cy="82.5" rx="3.1" ry="1.4"/>
		
			<ellipse id="Ellipse_20_1_" transform="matrix(0.9995 -3.189972e-02 3.189972e-02 0.9995 -2.0201 37.0975)" class="st0" cx="1161.6" cy="81.9" rx="3.1" ry="1.4"/>
		
			<ellipse id="Ellipse_21_1_" transform="matrix(0.9995 -3.189972e-02 3.189972e-02 0.9995 -1.9649 39.1929)" class="st0" cx="1227.3" cy="81.2" rx="3.1" ry="1.4"/>
		
			<ellipse id="Ellipse_22_1_" transform="matrix(0.9995 -3.189972e-02 3.189972e-02 0.9995 -1.9947 41.4209)" class="st0" cx="1297.1" cy="83.2" rx="3.1" ry="1.4"/>
		
			<ellipse id="Ellipse_23_1_" transform="matrix(0.9995 -3.189972e-02 3.189972e-02 0.9995 -1.9207 43.3199)" class="st0" cx="1356.7" cy="81.9" rx="3.1" ry="1.4"/>
		<g id="Group_431_1_" transform="translate(1022.122 163.486)">
			<line id="Line_5_1_" class="st28" x1="7.1" y1="12.1" x2="4.6" y2="18.7"/>
			<line id="Line_6_1_" class="st28" x1="11.7" y1="14.2" x2="9.1" y2="20.6"/>
			<line id="Line_7_1_" class="st28" x1="16.4" y1="16.2" x2="13.6" y2="22.6"/>
			<line id="Line_8_1_" class="st28" x1="20.9" y1="18.3" x2="18" y2="24.6"/>
			<line id="Line_9_1_" class="st28" x1="25.6" y1="20.3" x2="22.5" y2="26.6"/>
			<line id="Line_10_1_" class="st28" x1="30.2" y1="22.4" x2="27" y2="28.6"/>
			<line id="Line_11_1_" class="st28" x1="34.8" y1="24.4" x2="31.4" y2="30.6"/>
			<line id="Line_12_1_" class="st28" x1="39.4" y1="26.5" x2="35.9" y2="32.5"/>
			<line id="Line_13_1_" class="st28" x1="44" y1="28.6" x2="40.4" y2="34.5"/>
			<line id="Line_14_1_" class="st28" x1="48.6" y1="30.6" x2="44.9" y2="36.5"/>
			<line id="Line_15_1_" class="st28" x1="53.2" y1="32.7" x2="49.3" y2="38.5"/>
			<line id="Line_16_1_" class="st28" x1="57.8" y1="34.7" x2="53.8" y2="40.4"/>
			<line id="Line_17_1_" class="st28" x1="62.4" y1="36.8" x2="58.3" y2="42.4"/>
			<line id="Line_18_1_" class="st28" x1="67" y1="38.8" x2="62.8" y2="44.4"/>
			<line id="Line_19_1_" class="st28" x1="71.6" y1="40.9" x2="67.2" y2="46.4"/>
		</g>
		<g id="Group_432_1_" transform="translate(1024.644 164.495)">
			<line id="Line_20_1_" class="st28" x1="7.1" y1="12.1" x2="4.6" y2="18.7"/>
			<line id="Line_21_1_" class="st28" x1="11.7" y1="14.2" x2="9.1" y2="20.6"/>
			<line id="Line_22_1_" class="st28" x1="16.4" y1="16.2" x2="13.6" y2="22.6"/>
			<line id="Line_23_1_" class="st28" x1="20.9" y1="18.3" x2="18" y2="24.6"/>
			<line id="Line_24_1_" class="st28" x1="25.6" y1="20.3" x2="22.5" y2="26.6"/>
			<line id="Line_25_1_" class="st28" x1="30.2" y1="22.4" x2="27" y2="28.6"/>
			<line id="Line_26_1_" class="st28" x1="34.8" y1="24.4" x2="31.4" y2="30.6"/>
			<line id="Line_27_1_" class="st28" x1="39.4" y1="26.5" x2="35.9" y2="32.5"/>
			<line id="Line_28_1_" class="st28" x1="44" y1="28.6" x2="40.4" y2="34.5"/>
			<line id="Line_29_1_" class="st28" x1="48.6" y1="30.6" x2="44.9" y2="36.5"/>
			<line id="Line_30_1_" class="st28" x1="53.2" y1="32.7" x2="49.3" y2="38.5"/>
			<line id="Line_31_1_" class="st28" x1="57.8" y1="34.7" x2="53.8" y2="40.4"/>
			<line id="Line_32_1_" class="st28" x1="62.4" y1="36.8" x2="58.3" y2="42.4"/>
			<line id="Line_33_1_" class="st28" x1="67" y1="38.8" x2="62.8" y2="44.4"/>
			<line id="Line_34_1_" class="st28" x1="71.6" y1="40.9" x2="67.2" y2="46.4"/>
		</g>
		<g id="Group_433_1_" transform="translate(1010.522 174.582)">
			<line id="Line_35_1_" class="st28" x1="7.1" y1="12.1" x2="4.6" y2="18.7"/>
			<line id="Line_36_1_" class="st28" x1="11.7" y1="14.2" x2="9.1" y2="20.6"/>
			<line id="Line_37_1_" class="st28" x1="16.4" y1="16.2" x2="13.6" y2="22.6"/>
			<line id="Line_38_1_" class="st28" x1="20.9" y1="18.3" x2="18" y2="24.6"/>
			<line id="Line_39_1_" class="st28" x1="25.6" y1="20.3" x2="22.5" y2="26.6"/>
			<line id="Line_40_1_" class="st28" x1="30.2" y1="22.4" x2="27" y2="28.6"/>
			<line id="Line_41_1_" class="st28" x1="34.8" y1="24.4" x2="31.4" y2="30.6"/>
			<line id="Line_42_1_" class="st28" x1="39.4" y1="26.5" x2="35.9" y2="32.5"/>
			<line id="Line_43_1_" class="st28" x1="44" y1="28.6" x2="40.4" y2="34.5"/>
			<line id="Line_44_1_" class="st28" x1="48.6" y1="30.6" x2="44.9" y2="36.5"/>
			<line id="Line_45_1_" class="st28" x1="53.2" y1="32.7" x2="49.3" y2="38.5"/>
			<line id="Line_46_1_" class="st28" x1="57.8" y1="34.7" x2="53.8" y2="40.4"/>
			<line id="Line_47_1_" class="st28" x1="62.4" y1="36.8" x2="58.3" y2="42.4"/>
			<line id="Line_48_1_" class="st28" x1="67" y1="38.8" x2="62.8" y2="44.4"/>
			<line id="Line_49_1_" class="st28" x1="71.6" y1="40.9" x2="67.2" y2="46.4"/>
		</g>
		<g id="Group_434_1_" transform="translate(1013.044 175.591)">
			<line id="Line_50_1_" class="st28" x1="7.1" y1="12.1" x2="4.6" y2="18.7"/>
			<line id="Line_51_1_" class="st28" x1="11.7" y1="14.2" x2="9.1" y2="20.6"/>
			<line id="Line_52_1_" class="st28" x1="16.4" y1="16.2" x2="13.6" y2="22.6"/>
			<line id="Line_53_1_" class="st28" x1="20.9" y1="18.3" x2="18" y2="24.6"/>
			<line id="Line_54_1_" class="st28" x1="25.6" y1="20.3" x2="22.5" y2="26.6"/>
			<line id="Line_55_1_" class="st28" x1="30.2" y1="22.4" x2="27" y2="28.6"/>
			<line id="Line_56_1_" class="st28" x1="34.8" y1="24.4" x2="31.4" y2="30.6"/>
			<line id="Line_57_1_" class="st28" x1="39.4" y1="26.5" x2="35.9" y2="32.5"/>
			<line id="Line_58_1_" class="st28" x1="44" y1="28.6" x2="40.4" y2="34.5"/>
			<line id="Line_59_1_" class="st28" x1="48.6" y1="30.6" x2="44.9" y2="36.5"/>
			<line id="Line_60_1_" class="st28" x1="53.2" y1="32.7" x2="49.3" y2="38.5"/>
			<line id="Line_61_1_" class="st28" x1="57.8" y1="34.7" x2="53.8" y2="40.4"/>
			<line id="Line_62_1_" class="st28" x1="62.4" y1="36.8" x2="58.3" y2="42.4"/>
			<line id="Line_63_1_" class="st28" x1="67" y1="38.8" x2="62.8" y2="44.4"/>
			<line id="Line_64_1_" class="st28" x1="71.6" y1="40.9" x2="67.2" y2="46.4"/>
		</g>
		<g id="Group_435_1_" transform="translate(994.382 189.713)">
			<line id="Line_65_1_" class="st28" x1="7.1" y1="12.1" x2="4.6" y2="18.7"/>
			<line id="Line_66_1_" class="st28" x1="11.7" y1="14.2" x2="9.1" y2="20.6"/>
			<line id="Line_67_1_" class="st28" x1="16.4" y1="16.2" x2="13.6" y2="22.6"/>
			<line id="Line_68_1_" class="st28" x1="20.9" y1="18.3" x2="18" y2="24.6"/>
			<line id="Line_69_1_" class="st28" x1="25.6" y1="20.3" x2="22.5" y2="26.6"/>
			<line id="Line_70_1_" class="st28" x1="30.2" y1="22.4" x2="27" y2="28.6"/>
			<line id="Line_71_1_" class="st28" x1="34.8" y1="24.4" x2="31.4" y2="30.6"/>
			<line id="Line_72_1_" class="st28" x1="39.4" y1="26.5" x2="35.9" y2="32.5"/>
			<line id="Line_73_1_" class="st28" x1="44" y1="28.6" x2="40.4" y2="34.5"/>
			<line id="Line_74_1_" class="st28" x1="48.6" y1="30.6" x2="44.9" y2="36.5"/>
			<line id="Line_75_1_" class="st28" x1="53.2" y1="32.7" x2="49.3" y2="38.5"/>
			<line id="Line_76_1_" class="st28" x1="57.8" y1="34.7" x2="53.8" y2="40.4"/>
			<line id="Line_77_1_" class="st28" x1="62.4" y1="36.8" x2="58.3" y2="42.4"/>
			<line id="Line_78_1_" class="st28" x1="67" y1="38.8" x2="62.8" y2="44.4"/>
			<line id="Line_79_1_" class="st28" x1="71.6" y1="40.9" x2="67.2" y2="46.4"/>
		</g>
		<g id="Group_436_1_" transform="translate(996.904 190.722)">
			<line id="Line_80_1_" class="st28" x1="7.1" y1="12.1" x2="4.6" y2="18.7"/>
			<line id="Line_81_1_" class="st28" x1="11.7" y1="14.2" x2="9.1" y2="20.6"/>
			<line id="Line_82_1_" class="st28" x1="16.4" y1="16.2" x2="13.6" y2="22.6"/>
			<line id="Line_83_1_" class="st28" x1="20.9" y1="18.3" x2="18" y2="24.6"/>
			<line id="Line_84_1_" class="st28" x1="25.6" y1="20.3" x2="22.5" y2="26.6"/>
			<line id="Line_85_1_" class="st28" x1="30.2" y1="22.4" x2="27" y2="28.6"/>
			<line id="Line_86_1_" class="st28" x1="34.8" y1="24.4" x2="31.4" y2="30.6"/>
			<line id="Line_87_1_" class="st28" x1="39.4" y1="26.5" x2="35.9" y2="32.5"/>
			<line id="Line_88_1_" class="st28" x1="44" y1="28.6" x2="40.4" y2="34.5"/>
			<line id="Line_89_1_" class="st28" x1="48.6" y1="30.6" x2="44.9" y2="36.5"/>
			<line id="Line_90_1_" class="st28" x1="53.2" y1="32.7" x2="49.3" y2="38.5"/>
			<line id="Line_91_1_" class="st28" x1="57.8" y1="34.7" x2="53.8" y2="40.4"/>
			<line id="Line_92_1_" class="st28" x1="62.4" y1="36.8" x2="58.3" y2="42.4"/>
			<line id="Line_93_1_" class="st28" x1="67" y1="38.8" x2="62.8" y2="44.4"/>
			<line id="Line_94_1_" class="st28" x1="71.6" y1="40.9" x2="67.2" y2="46.4"/>
		</g>
		<g id="Group_437_1_" transform="translate(977.234 200.809)">
			<line id="Line_95_1_" class="st28" x1="7.1" y1="12.1" x2="4.6" y2="18.7"/>
			<line id="Line_96_1_" class="st28" x1="11.7" y1="14.2" x2="9.1" y2="20.6"/>
			<line id="Line_97_1_" class="st28" x1="16.4" y1="16.2" x2="13.6" y2="22.6"/>
			<line id="Line_98_1_" class="st28" x1="20.9" y1="18.3" x2="18" y2="24.6"/>
			<line id="Line_99_1_" class="st28" x1="25.6" y1="20.3" x2="22.5" y2="26.6"/>
			<line id="Line_100_1_" class="st28" x1="30.2" y1="22.4" x2="27" y2="28.6"/>
			<line id="Line_101_1_" class="st28" x1="34.8" y1="24.4" x2="31.4" y2="30.6"/>
			<line id="Line_102_1_" class="st28" x1="39.4" y1="26.5" x2="35.9" y2="32.5"/>
			<line id="Line_103_1_" class="st28" x1="44" y1="28.6" x2="40.4" y2="34.5"/>
			<line id="Line_104_1_" class="st28" x1="48.6" y1="30.6" x2="44.9" y2="36.5"/>
			<line id="Line_105_1_" class="st28" x1="53.2" y1="32.7" x2="49.3" y2="38.5"/>
			<line id="Line_106_1_" class="st28" x1="57.8" y1="34.7" x2="53.8" y2="40.4"/>
			<line id="Line_107_1_" class="st28" x1="62.4" y1="36.8" x2="58.3" y2="42.4"/>
			<line id="Line_108_1_" class="st28" x1="67" y1="38.8" x2="62.8" y2="44.4"/>
			<line id="Line_109_1_" class="st28" x1="71.6" y1="40.9" x2="67.2" y2="46.4"/>
		</g>
		<g id="Group_438_1_" transform="translate(979.756 201.818)">
			<line id="Line_110_1_" class="st28" x1="7.1" y1="12.1" x2="4.6" y2="18.7"/>
			<line id="Line_111_1_" class="st28" x1="11.7" y1="14.2" x2="9.1" y2="20.6"/>
			<line id="Line_112_1_" class="st28" x1="16.4" y1="16.2" x2="13.6" y2="22.6"/>
			<line id="Line_113_1_" class="st28" x1="20.9" y1="18.3" x2="18" y2="24.6"/>
			<line id="Line_114_1_" class="st28" x1="25.6" y1="20.3" x2="22.5" y2="26.6"/>
			<line id="Line_115_1_" class="st28" x1="30.2" y1="22.4" x2="27" y2="28.6"/>
			<line id="Line_116_1_" class="st28" x1="34.8" y1="24.4" x2="31.4" y2="30.6"/>
			<line id="Line_117_1_" class="st28" x1="39.4" y1="26.5" x2="35.9" y2="32.5"/>
			<line id="Line_118_1_" class="st28" x1="44" y1="28.6" x2="40.4" y2="34.5"/>
			<line id="Line_119_1_" class="st28" x1="48.6" y1="30.6" x2="44.9" y2="36.5"/>
			<line id="Line_120_1_" class="st28" x1="53.2" y1="32.7" x2="49.3" y2="38.5"/>
			<line id="Line_121_1_" class="st28" x1="57.8" y1="34.7" x2="53.8" y2="40.4"/>
			<line id="Line_122_1_" class="st28" x1="62.4" y1="36.8" x2="58.3" y2="42.4"/>
			<line id="Line_123_1_" class="st28" x1="67" y1="38.8" x2="62.8" y2="44.4"/>
			<line id="Line_124_1_" class="st28" x1="71.6" y1="40.9" x2="67.2" y2="46.4"/>
		</g>
		<g id="Group_440_1_" transform="translate(1083.216 147.105)">
			<g id="Group_439_1_" transform="translate(9.561)">
				<path id="Path_434_1_" class="st18" d="M16.1,45.8l-1,9.9l1,0.6c0,0,0.3,1.3-1.3,1l-1.3-1.6l0.3-1v-4.5l-1.6-5.4L16.1,45.8z"/>
				<path id="Path_435_1_" class="st29" d="M7.3,19.2c0,0,1.1,2.1-2.1,2.1c1.1,0.6,2.5,0.2,3.1-1c0,0,0-0.1,0-0.1L7.3,19.2z"/>
				<path id="Path_436_1_" class="st18" d="M6.1,45.2l1,9.9l-1,0.6c0,0-0.3,1.3,1.3,1l1.3-1.6l-0.3-1v-4.5l1.6-5.4L6.1,45.2z"/>
				<ellipse id="Ellipse_24_1_" class="st18" cx="11.1" cy="19.1" rx="4.7" ry="5.6"/>
				<ellipse id="Ellipse_25_1_" class="st18" cx="15.9" cy="19.8" rx="1" ry="1.1"/>
				<path id="Path_437_1_" class="st18" d="M12.9,23.5v2.3h-2.6l0.6-2.3H12.9z"/>
				<ellipse id="Ellipse_26_1_" class="st18" cx="11.7" cy="27.2" rx="2.7" ry="2.3"/>
				<path id="Path_438_1_" class="st18" d="M16.9,34.4l-1.1-4.3v9.1H6.7l0.6-10.9c0,0,0-2.8,3.9-3.2"/>
				<path id="Path_439_1_" class="st18" d="M12.8,25.1l3.9,1.8c0.4,0.2,0.7,0.5,0.9,0.9l2,7.1l-11.2,5l-2.1-0.8
					C6,38.4,6.4,37.7,7,37.5c0,0,0,0,0.1,0c0,0,1.3,0,1.3,0.8l8.3-4.1l-0.8-2.5"/>
				<path id="Path_440_1_" class="st22" d="M13,54.3h4c0.6-5.5,0.1-11-1.4-16.4H7.2c0,0-3.6,9.5-1.1,15.6l4.4,0.7l0.7-6.9L13,54.3z"
					/>
				<path id="Path_441_1_" class="st30" d="M9,25.2l-3.6,3.6l0.7,2.9l1.1-1.1L4.6,47.4l13.1-0.7l-1.8-15h2.7l-0.9-5l-3.3-0.9
					C14.4,25.8,9.7,28.1,9,25.2z"/>
				<path id="Path_442_1_" class="st23" d="M14.9,25.9l-2.7,6.2c0,0-1.1,2.2-2.6-0.4l-1.3-6L6.1,27l3.3,9.8c0,0,1.1,1.4,2.9,0
					l5.1-10.5l-2.6-0.4L14.9,25.9z"/>
				<path id="Path_443_1_" class="st24" d="M13.7,31c0,0-1.8,4.7-4.4,2.2C9.3,33.2,11.5,36.5,13.7,31z"/>
				<path id="Path_444_1_" class="st24" d="M7.5,27.8c0,0,0.4,7.3,3.3,8C10.8,35.8,8.3,35,7.5,27.8z"/>
				<path id="Path_445_1_" class="st29" d="M14.8,15c0,0-1.7,0-2.8,2.7c0,0-5.9-1.4-6.8-0.9c0,0,3.7-9.1,11.9-2.1
					c1.3,2.8,0.9,6.1-1.1,8.5C16,23.3,10.3,19.6,14.8,15"/>
			</g>
			<path id="Path_446_1_" class="st31" d="M21.2,28.7L9.6,51.2H8.8l12.5-24.1C21.2,27.1,22.1,27.1,21.2,28.7z"/>
			<path id="Path_447_1_" class="st31" d="M5.4,52.4c0,0,4.6-4.1,6.2,1.7L10.4,57l-0.8-0.4l1.3-2.9c0,0,0-1.7-1.3-1.3l-1.7,3.7
				l-0.8-0.4L8.8,52c0,0-0.8-0.8-2.5,0.8L5,55.3l-0.4-0.8L5.4,52.4z"/>
			<path id="Path_448_1_" class="st18" d="M26.2,34.1L17.9,37c0,0-1.7-0.8-2.1-0.4l-0.4,1.3c0,0,1.6,0.2,0.8,0.5L16,38.7l1.9-0.4
				l8.6-2.2L26.2,34.1z"/>
			<path id="Path_449_1_" class="st18" d="M15.4,31.2l-1.3,2.9l1,4.6l0.6,0.6c0,0,0.7,1-0.7,1.3c0,0-0.9-0.2-0.5-1.4l-2.9-5l3.3-5
				L15.4,31.2z"/>
		</g>
		<path id="Path_450_1_" class="st23" d="M1020.2,179.6l-0.5,1.9c-0.4,0-0.5-2.1-0.5-2.5l-0.3-10c0-0.4,0.4-0.8,0.8-0.8l0,0l0,0
			c0.4,0,0.8,0.4,0.8,0.8l0,0L1020.2,179.6z"/>
		<path id="Path_451_1_" class="st23" d="M1009.5,191.8l-0.5,1.9c-0.4,0-0.5-2.1-0.5-2.5l-0.3-10c0-0.4,0.4-0.8,0.8-0.8l0,0l0,0
			c0.4,0,0.8,0.4,0.8,0.8l0,0L1009.5,191.8z"/>
		<path id="Path_452_1_" class="st23" d="M993.6,202.5l-0.5,1.9c-0.4,0-0.5-2.1-0.5-2.5l-0.3-10c0-0.4,0.4-0.8,0.8-0.8l0,0l0,0
			c0.4,0,0.8,0.4,0.8,0.8l0,0L993.6,202.5z"/>
		<path id="Path_453_1_" class="st23" d="M981.3,212l-0.5,1.9c-0.4,0-0.5-2.1-0.5-2.5l-0.3-10c0-0.4,0.4-0.8,0.8-0.8l0,0l0,0
			c0.4,0,0.8,0.4,0.8,0.8l0,0L981.3,212z"/>
		<path id="Path_454_1_" class="st23" d="M1022.6,170c0,0-27.1,33.5-45.8,35.1l1.1,2.1c0,0,24.5-5.3,44.7-35.1V170z"/>
		<path id="Path_455_1_" class="st23" d="M1098.3,217.7l-0.3,2c-0.4,0-0.7-2.1-0.7-2.5l-1.1-10c0-0.4,0.3-0.8,0.7-0.9l0,0
			c0.4,0,0.8,0.3,0.9,0.7L1098.3,217.7z"/>
		<path id="Path_456_1_" class="st23" d="M1088.7,230.8l-0.3,2c-0.4,0-0.7-2.1-0.7-2.5l-1.1-10c0-0.4,0.3-0.8,0.7-0.9l0,0
			c0.4,0,0.8,0.3,0.9,0.7L1088.7,230.8z"/>
		<path id="Path_457_1_" class="st23" d="M1073.6,242.6l-0.3,2c-0.4,0-0.7-2.1-0.7-2.5l-1.1-10c0-0.4,0.3-0.8,0.7-0.9l0,0
			c0.4,0,0.8,0.3,0.9,0.7L1073.6,242.6z"/>
		<path id="Path_458_1_" class="st23" d="M1062.2,253.2l-0.3,2c-0.4,0-0.7-2.1-0.7-2.5l-1.1-10c0-0.4,0.3-0.8,0.7-0.9l0,0
			c0.4,0,0.8,0.3,0.9,0.7L1062.2,253.2z"/>
		<path id="Path_459_1_" class="st23" d="M1100,208c0,0-24.4,35.6-42.8,38.7l1.2,2c0,0,24-7.3,41.7-38.6L1100,208z"/>
		<path id="Path_460_1_" class="st32" d="M997,208.5l65,29.4l-8.2,5.5l-65.7-30.8L997,208.5z"/>
		<path id="Path_461_1_" class="st32" d="M1012.1,194.1l65,29.4l-8.2,5.5l-65.7-30.8L1012.1,194.1z"/>
		<path id="Path_462_1_" class="st32" d="M1031.1,183.9l57.4,26l-7.3,4.8l-58-27.2L1031.1,183.9z"/>
		<g id="Group_442_1_" transform="translate(964.68 177.903)">
			
				<ellipse id="Ellipse_27_1_" transform="matrix(0.7469 -0.665 0.665 0.7469 -15.519 19.0331)" class="st26" cx="17.2" cy="29.9" rx="1.3" ry="1.5"/>
			<path id="Path_463_1_" class="st18" d="M12.1,25.7l1.7,3.8l2.5,0.9h0.4L15.5,31L13,30.4l-1.7-2.1L12.1,25.7z"/>
			<path id="Path_464_1_" class="st18" d="M13.8,48.1v5.9l1.7,0.9l-1.3,0.9l-1.7-1.7l-0.4-5.9L13.8,48.1z"/>
			<path id="Path_465_1_" class="st18" d="M10.4,47.3v5.9l1.7,0.9l-1.3,0.9l-1.7-1.7l-0.4-5.9L10.4,47.3z"/>
			<g id="Group_441_1_" transform="translate(0 1.889)">
				<path id="Path_466_1_" class="st18" d="M12.5,19.6l-1.3,2.5l-2.2-2.2l2.4-2.6L12.5,19.6z"/>
				<path id="Path_467_1_" class="st33" d="M9.6,19.7c0,0,0.7,2.1,2.6,1.8l0.1,4.7l3.6,20.1c0,0-7.5,3.1-10.2,0l-0.6-5.9
					c0,0-2.2-14.9,2.6-21.8C7.7,18.5,9.2,17.8,9.6,19.7z"/>
				<path id="Path_468_1_" class="st18" d="M16.4,13.8c0,0,1.1,2.5,0.9,3.9l0.7,1.1c0,0-0.2,0.4-1,0c-0.7,1.4-2.3,2.2-3.9,1.9
					c0,0-5.2-3.1-3.4-6.6C9.7,14.1,11.9,9.8,16.4,13.8"/>
			</g>
			<path id="Path_469_1_" class="st19" d="M17.6,17.6h-3.4l-0.9-1.7l-0.9,1.7v-1.7l-1.3,0.4l-1.7-0.4l1.3-2.5l3-1.3l0.4,0.8l0.9-0.8
				v1.3l3,1.7l0.4,2.1L17.6,17.6z"/>
			<path id="Path_470_1_" class="st19" d="M10.8,15.5L10,19.6l-1.8-1.9l-0.4-2.1l1.3,0.4l-0.8-1.3l1.3-0.8l1.7-0.6L10.8,15.5z"/>
			<path id="Path_472_1_" class="st34" d="M16.4,28.6c0,0,0.4,2.1,2.1,2.1l-3.8,3l-1.3-3L16.4,28.6z"/>
			<path id="Path_473_1_" class="st18" d="M7.9,28.6l4.2,3.8l3.4-0.9v-1.3h0.4v0.9l0.9-0.9c0,0,0.9,0.9-0.4,1.7l-3.8,1.7l-5.9-4.2
				L7.9,28.6z"/>
			<path id="Path_474_1_" class="st22" d="M6.3,23.8c0,0-1.3,5.3,1.4,7.8c0,0,0-1.6,2.2-1.9C9.8,29.8,9.2,23.6,6.3,23.8z"/>
		</g>
		<path id="Path_501_1_" class="st25" d="M1069.7,284.3c0,0-67.8-22.6-79.4,26.7c0,0,12.3,41.8-43.8,21.2c0,0-52,15.7-3.4,31.5
			c0,0,73.2,28.8,91-3.4c0,0,34.2-30.8,63.7-3.4c0,0,51.3-39.7-24.6-50.6C1073.1,306.2,1040.9,300.1,1069.7,284.3z"/>
		<g id="Group_446_1_" transform="translate(997.37 279.071)">
			<rect id="Rectangle_304_1_" x="15.5" y="12.1" class="st35" width="4.1" height="57.5"/>
			<path id="Path_502_1_" class="st3" d="M17.6,24.4c0,0-9.6-4.1-12.3,4.8C8.9,26.6,13.1,25,17.6,24.4z"/>
			<path id="Path_503_1_" class="st3" d="M17.6,24.4c0,0,9.6-4.1,12.3,4.8C26.2,26.6,22,25,17.6,24.4z"/>
			<path id="Path_504_1_" class="st3" d="M18.3,14.2c0,0-9.6-4.1-12.3,4.8C9.6,16.4,13.8,14.7,18.3,14.2z"/>
			<path id="Path_505_1_" class="st3" d="M18.3,14.2c0,0,9.6-4.1,12.3,4.8C26.9,16.4,22.7,14.7,18.3,14.2z"/>
			<path id="Path_506_1_" class="st3" d="M18.5,35.4c0,0-7-7.7-13.2-0.8C9.7,33.8,14.2,34.1,18.5,35.4z"/>
			<path id="Path_507_1_" class="st3" d="M16.6,35.6c0,0,7.6-7.2,13.2,0.2C25.5,34.7,21,34.6,16.6,35.6z"/>
			<path id="Path_508_1_" class="st3" d="M17.8,45c0,0-7-7.7-13.2-0.8C9,43.4,13.5,43.6,17.8,45z"/>
			<path id="Path_509_1_" class="st3" d="M15.9,45.2c0,0,7.6-7.2,13.2,0.2C24.8,44.3,20.3,44.2,15.9,45.2z"/>
			<path id="Path_510_1_" class="st3" d="M18.5,54.6c0,0-7-7.7-13.2-0.8C9.7,52.9,14.2,53.2,18.5,54.6z"/>
			<path id="Path_511_1_" class="st3" d="M16.6,54.8c0,0,7.6-7.2,13.2,0.2C25.5,53.8,21,53.8,16.6,54.8z"/>
		</g>
		<g id="Group_447_1_" transform="translate(1031.318 262.302)">
			<rect id="Rectangle_305_1_" x="9.6" y="12.1" class="st35" width="1.9" height="26.3"/>
			<path id="Path_512_1_" class="st3" d="M10.5,17.7c0,0-4.4-1.9-5.6,2.2C6.6,18.8,8.5,18,10.5,17.7z"/>
			<path id="Path_513_1_" class="st3" d="M10.5,17.7c0,0,4.4-1.9,5.6,2.2C14.5,18.8,12.6,18,10.5,17.7z"/>
			<path id="Path_514_1_" class="st3" d="M10.8,13.1c0,0-4.4-1.9-5.6,2.2C6.9,14.1,8.8,13.3,10.8,13.1z"/>
			<path id="Path_515_1_" class="st3" d="M10.8,13.1c0,0,4.4-1.9,5.6,2.2C14.8,14.1,12.9,13.3,10.8,13.1z"/>
			<path id="Path_516_1_" class="st3" d="M10.9,22.8c0,0-3.2-3.5-6-0.4C6.9,22,9,22.1,10.9,22.8z"/>
			<path id="Path_517_1_" class="st3" d="M10.1,22.8c0,0,3.5-3.3,6,0.1C14.1,22.4,12.1,22.4,10.1,22.8z"/>
			<path id="Path_518_1_" class="st3" d="M10.6,27.1c0,0-3.2-3.5-6-0.4C6.6,26.4,8.7,26.5,10.6,27.1z"/>
			<path id="Path_519_1_" class="st3" d="M9.8,27.2c0,0,3.5-3.3,6,0.1C13.8,26.8,11.8,26.8,9.8,27.2z"/>
			<path id="Path_520_1_" class="st3" d="M10.9,31.5c0,0-3.2-3.5-6-0.4C6.9,30.8,9,30.9,10.9,31.5z"/>
			<path id="Path_521_1_" class="st3" d="M10.1,31.6c0,0,3.5-3.3,6,0.1C14.1,31.2,12.1,31.1,10.1,31.6z"/>
		</g>
		<g id="Group_448_1_" transform="translate(938.922 308.158)">
			<rect id="Rectangle_306_1_" x="9.6" y="12.1" class="st35" width="1.9" height="26.3"/>
			<path id="Path_522_1_" class="st3" d="M10.5,17.7c0,0-4.4-1.9-5.6,2.2C6.6,18.8,8.5,18,10.5,17.7z"/>
			<path id="Path_523_1_" class="st3" d="M10.5,17.7c0,0,4.4-1.9,5.6,2.2C14.5,18.8,12.6,18,10.5,17.7z"/>
			<path id="Path_524_1_" class="st3" d="M10.8,13.1c0,0-4.4-1.9-5.6,2.2C6.9,14.1,8.8,13.3,10.8,13.1z"/>
			<path id="Path_525_1_" class="st3" d="M10.8,13.1c0,0,4.4-1.9,5.6,2.2C14.8,14.1,12.9,13.3,10.8,13.1z"/>
			<path id="Path_526_1_" class="st3" d="M10.9,22.8c0,0-3.2-3.5-6-0.4C6.9,22,9,22.1,10.9,22.8z"/>
			<path id="Path_527_1_" class="st3" d="M10.1,22.8c0,0,3.5-3.3,6,0.1C14.1,22.4,12.1,22.4,10.1,22.8z"/>
			<path id="Path_528_1_" class="st3" d="M10.6,27.1c0,0-3.2-3.5-6-0.4C6.6,26.4,8.7,26.5,10.6,27.1z"/>
			<path id="Path_529_1_" class="st3" d="M9.8,27.2c0,0,3.5-3.3,6,0.1C13.8,26.8,11.8,26.8,9.8,27.2z"/>
			<path id="Path_530_1_" class="st3" d="M10.9,31.5c0,0-3.2-3.5-6-0.4C6.9,30.8,9,30.9,10.9,31.5z"/>
			<path id="Path_531_1_" class="st3" d="M10.1,31.6c0,0,3.5-3.3,6,0.1C14.1,31.2,12.1,31.1,10.1,31.6z"/>
		</g>
		<path id="Path_532_1_" class="st34" d="M984.8,369.9c0,0-10.7,4.1-16.8-2.5c4.5-1.2,9.2-0.9,13.5,0.8c0,0-8.9-11-6.6-14.8
			c0,0,7.9,2.5,7.6,14c0,0-2-11.2,2.3-15.3c0,0,2.6,7.1,1,10.2c0,0,2.3-5.6,9.2-4.1c0,0-4.3,5.1-9.4,6.9c0,0,7.6-2.5,10.7,3.8
			c0,0-6.9,2.8-10.4-0.8L984.8,369.9z"/>
		<path id="Path_533_1_" class="st26" d="M1001.4,372.5c0,0-6.1,2.3-9.6-1.5c2.6-0.7,5.2-0.5,7.7,0.4c0,0-5.1-6.2-3.8-8.4
			c0,0,4.5,1.5,4.3,8c0,0-1.2-6.4,1.3-8.7c0,0,1.4,4.1,0.6,5.8c0.9-2,3.2-3,5.2-2.3c-1.5,1.7-3.3,3-5.4,3.9c0,0,4.3-1.5,6.1,2.2
			c0,0-3.9,1.6-5.9-0.4L1001.4,372.5z"/>
		<g id="Group_452_1_" transform="translate(705.938 27.332)">
			<g id="Group_449_1_" transform="translate(10.978)">
				<path id="Path_534_1_" class="st36" d="M14.2,12.6c-2.8-1-5.9-0.3-8.1,1.7c-0.4,0.3-0.7,0.8-1,1.2c-0.3,0.6-0.4,1.3-0.5,2
					c-0.2,1.3-0.1,2.6,0.1,3.9c0.4,2.8,2.8,4.8,5.6,4.7c1.4,0.1,2.8-0.1,4.1-0.6c0.8-0.3,1.5-0.7,2.1-1.3c0.5-0.6,0.8-1.3,1-2
					c0.6-2.2,0.4-4.5-0.6-6.5C16.2,14.4,15.3,13.4,14.2,12.6"/>
				<path id="Path_535_1_" class="st37" d="M7.5,15.2c-1.1,1.1-1.7,2.6-1.7,4.1"/>
				<path id="Path_536_1_" class="st37" d="M6.1,20.2c-0.1,1.1,0.2,2.2,1,3"/>
				<path id="Path_537_1_" class="st37" d="M8.2,23.9c0.2,0.4,0.5,0.6,0.8,0.9c0.3,0.2,0.7,0.3,1.1,0.4c0.4,0.1,0.7,0.1,1.1,0.1"/>
				<path id="Path_538_1_" class="st37" d="M7.7,17.5c-0.5,0.8-0.7,1.7-0.4,2.6"/>
				<path id="Path_539_1_" class="st37" d="M8.1,21.4c0.2,0.8,0.7,1.5,1.3,2"/>
				<path id="Path_540_1_" class="st37" d="M9.5,18.3c-0.1,0.7-0.1,1.5,0.1,2.3c0,0.1,0.1,0.2,0.2,0.2"/>
				<path id="Path_541_1_" class="st37" d="M10.3,21.8c0.2,0.3,0.4,0.5,0.8,0.6c0.3,0.1,0.7,0.1,1,0.1c0.1,0,0.1,0,0.2,0.1"/>
				<path id="Path_542_1_" class="st37" d="M11.9,23.6c0.6,0.1,1.1,0.1,1.7-0.1c0.7-0.1,1.4-0.4,2.1-0.6"/>
				<path id="Path_543_1_" class="st37" d="M13.6,24.8l2.1-0.6c0.1,0,0.3-0.1,0.3-0.2"/>
				<path id="Path_544_1_" class="st37" d="M8.6,16.6c0.7-0.9,1.7-1.5,2.7-1.8"/>
				<path id="Path_545_1_" class="st37" d="M9,14.1c0.3-0.3,0.8-0.6,1.2-0.7c0.4-0.1,0.9-0.2,1.4-0.2"/>
				<path id="Path_546_1_" class="st37" d="M6.9,14.2c0.4-0.4,1-0.8,1.6-1"/>
				<path id="Path_547_1_" class="st37" d="M12.6,13.8c0.6,0,1.2,0.1,1.8,0.5"/>
				<path id="Path_548_1_" class="st37" d="M12.5,16.2c-0.4,0.4-0.7,1-0.8,1.6c-0.1,0.3-0.1,0.6,0,0.8"/>
				<path id="Path_549_1_" class="st37" d="M12.5,19.9c0.4,0.3,0.8,0.6,1.3,0.7c0.5,0.1,1,0.1,1.4-0.2"/>
				<path id="Path_550_1_" class="st37" d="M13.4,16.8c-0.1,0.3,0,0.7,0.2,0.9c0.2,0.3,0.4,0.5,0.7,0.7"/>
				<path id="Path_551_1_" class="st37" d="M15.8,16.4c0.4,0.7,0.6,1.6,0.6,2.4"/>
				<path id="Path_552_1_" class="st37" d="M16.5,20.2c-0.1,0.6-0.4,1.2-0.9,1.6c-0.4,0.2-0.8,0.4-1.3,0.4"/>
				<path id="Path_553_1_" class="st37" d="M13.2,15.2c0.6,0,1.2,0.3,1.7,0.7"/>
			</g>
			<g id="Group_450_1_" transform="translate(19.824 11.756)">
				<path id="Path_554_1_" class="st38" d="M16.7,12.7c-3.5-1.2-7.4-0.4-10.2,2.1c-0.5,0.4-0.9,0.9-1.2,1.5
					c-0.3,0.8-0.5,1.6-0.6,2.5c-0.2,1.6-0.2,3.3,0.1,4.8c0.4,3.5,3.5,6.1,7,5.9c1.8,0.1,3.5-0.1,5.1-0.7c1-0.3,1.9-0.9,2.6-1.6
					c0.6-0.7,1-1.6,1.2-2.5c0.7-2.7,0.5-5.6-0.8-8.2C19.2,15,18.1,13.7,16.7,12.7"/>
				<path id="Path_555_1_" class="st39" d="M8.2,16c-1.3,1.4-2.1,3.2-2.1,5.2"/>
				<path id="Path_556_1_" class="st39" d="M6.5,22.3c-0.2,1.4,0.3,2.8,1.3,3.8"/>
				<path id="Path_557_1_" class="st39" d="M9.1,27c0.2,0.4,0.6,0.8,1,1.1c0.4,0.2,0.9,0.4,1.4,0.5c0.5,0.1,0.9,0.1,1.4,0.1"/>
				<path id="Path_558_1_" class="st39" d="M8.4,18.9c-0.6,1-0.8,2.1-0.6,3.3"/>
				<path id="Path_559_1_" class="st39" d="M9.1,23.8c0.2,1,0.8,1.9,1.7,2.6"/>
				<path id="Path_560_1_" class="st39" d="M10.8,19.9c-0.2,0.9-0.1,1.9,0.2,2.8c0,0.1,0.1,0.3,0.2,0.3"/>
				<path id="Path_561_1_" class="st39" d="M11.8,24.3c0.2,0.4,0.6,0.7,1,0.8c0.4,0.1,0.8,0.1,1.2,0.1c0.1,0,0.2,0,0.2,0.1"/>
				<path id="Path_562_1_" class="st39" d="M13.8,26.6c0.7,0.1,1.4,0.1,2.1-0.1c0.9-0.2,1.8-0.4,2.6-0.8"/>
				<path id="Path_563_1_" class="st39" d="M15.9,28.1l2.7-0.7c0.2,0,0.3-0.1,0.4-0.2"/>
				<path id="Path_564_1_" class="st39" d="M9.7,17.8c0.9-1.1,2.1-1.9,3.4-2.3"/>
				<path id="Path_565_1_" class="st39" d="M10.1,14.6c0.4-0.4,1-0.7,1.5-0.9c0.6-0.2,1.1-0.3,1.7-0.3"/>
				<path id="Path_566_1_" class="st39" d="M7.4,14.7c0.6-0.5,1.2-0.9,2-1.2"/>
				<path id="Path_567_1_" class="st39" d="M14.6,14.2c0.8-0.1,1.6,0.2,2.2,0.6"/>
				<path id="Path_568_1_" class="st39" d="M14.5,17.3c-0.6,0.6-0.9,1.3-1,2.1c-0.1,0.3-0.1,0.7,0,1.1"/>
				<path id="Path_569_1_" class="st39" d="M14.5,21.9c0.5,0.4,1,0.7,1.6,0.9c0.6,0.2,1.2,0.1,1.8-0.2"/>
				<path id="Path_570_1_" class="st39" d="M15.6,18.1c-0.1,0.4,0,0.8,0.3,1.2c0.2,0.3,0.5,0.6,0.9,0.8"/>
				<path id="Path_571_1_" class="st39" d="M18.7,17.5c0.6,0.9,0.8,2,0.7,3"/>
				<path id="Path_572_1_" class="st39" d="M19.6,22.3c-0.1,0.8-0.5,1.5-1.1,2c-0.5,0.3-1.1,0.4-1.6,0.4"/>
				<path id="Path_573_1_" class="st39" d="M15.5,16c0.8,0,1.6,0.3,2.1,0.9"/>
			</g>
			<g id="Group_451_1_" transform="translate(0 18.443)">
				<path id="Path_574_1_" class="st40" d="M16.7,12.7c-3.5-1.2-7.4-0.4-10.2,2.1c-0.5,0.4-0.9,0.9-1.2,1.5
					c-0.3,0.8-0.5,1.6-0.6,2.5c-0.2,1.6-0.2,3.3,0.1,4.8c0.4,3.5,3.5,6.1,7,5.9c1.8,0.1,3.5-0.1,5.1-0.7c1-0.3,1.9-0.9,2.6-1.6
					c0.6-0.7,1-1.6,1.2-2.5c0.7-2.7,0.5-5.6-0.8-8.2C19.2,15,18.1,13.7,16.7,12.7"/>
				<path id="Path_575_1_" class="st41" d="M8.2,16c-1.3,1.4-2.1,3.2-2.1,5.2"/>
				<path id="Path_576_1_" class="st41" d="M6.5,22.3c-0.2,1.4,0.3,2.8,1.3,3.8"/>
				<path id="Path_577_1_" class="st41" d="M9.1,27c0.2,0.4,0.6,0.8,1,1.1c0.4,0.2,0.9,0.4,1.4,0.5c0.5,0.1,0.9,0.1,1.4,0.1"/>
				<path id="Path_578_1_" class="st41" d="M8.4,18.9c-0.6,1-0.8,2.1-0.6,3.3"/>
				<path id="Path_579_1_" class="st41" d="M9.1,23.8c0.2,1,0.8,1.9,1.7,2.6"/>
				<path id="Path_580_1_" class="st41" d="M10.8,19.9c-0.2,0.9-0.1,1.9,0.2,2.8c0,0.1,0.1,0.3,0.2,0.3"/>
				<path id="Path_581_1_" class="st41" d="M11.8,24.3c0.2,0.4,0.6,0.7,1,0.8c0.4,0.1,0.8,0.1,1.2,0.1c0.1,0,0.2,0,0.2,0.1"/>
				<path id="Path_582_1_" class="st41" d="M13.8,26.6c0.7,0.1,1.4,0.1,2.1-0.1c0.9-0.2,1.8-0.4,2.6-0.8"/>
				<path id="Path_583_1_" class="st41" d="M15.9,28.1l2.7-0.7c0.2,0,0.3-0.1,0.4-0.2"/>
				<path id="Path_584_1_" class="st41" d="M9.7,17.8c0.9-1.1,2.1-1.9,3.4-2.3"/>
				<path id="Path_585_1_" class="st41" d="M10.1,14.6c0.4-0.4,1-0.7,1.5-0.9c0.6-0.2,1.1-0.3,1.7-0.3"/>
				<path id="Path_586_1_" class="st41" d="M7.5,14.7c0.6-0.5,1.2-0.9,2-1.2"/>
				<path id="Path_587_1_" class="st41" d="M14.6,14.2c0.8-0.1,1.6,0.2,2.2,0.6"/>
				<path id="Path_588_1_" class="st41" d="M14.5,17.3c-0.6,0.6-0.9,1.3-1,2.1c-0.1,0.3-0.1,0.7,0,1.1"/>
				<path id="Path_589_1_" class="st41" d="M14.5,21.9c0.5,0.4,1,0.7,1.6,0.9s1.2,0.1,1.8-0.2"/>
				<path id="Path_590_1_" class="st41" d="M15.6,18.1c-0.1,0.4,0,0.8,0.3,1.2c0.2,0.3,0.5,0.6,0.9,0.8"/>
				<path id="Path_591_1_" class="st41" d="M18.7,17.5c0.6,0.9,0.8,2,0.7,3"/>
				<path id="Path_592_1_" class="st41" d="M19.6,22.3c0,1.4-1.2,2.5-2.5,2.5c-0.1,0-0.1,0-0.1,0"/>
				<path id="Path_593_1_" class="st41" d="M15.5,16c0.8,0,1.6,0.3,2.1,0.9"/>
			</g>
			<path id="Path_594_1_" class="st42" d="M22.6,66.8c0,0.9-0.1,1.7-0.3,2.6c-0.1,0.3-0.2,0.7-0.1,1.1c0.1,0.5,0.6,0.5,1,0.5
				l2.6-0.4c0.2-3.4-0.7-6.6-1.1-9.9c-0.2-1.5-0.2-3-0.2-4.6c-0.3-11.5-0.7-23-1.2-34.5c-0.1-1.6-0.2-3.8-1.2-4.7
				c-0.6,2.3-0.1,5.5-0.1,8c-0.1,3.4-0.1,6.8-0.1,10.2c0.1,6.9,0.6,13.7,0.7,20.6C22.7,59.3,22.7,63,22.6,66.8z"/>
			<path id="Path_595_1_" class="st42" d="M32.4,39.5c0,0.9-0.1,1.8-0.5,2.7c-0.7,1.4-2,2.3-3.5,2.7c-1.5,0.3-3,0.5-4.5,0.3
				c-0.2,0-0.4,0-0.6,0.1c-0.1,0.1-0.2,0.3-0.2,0.5c-0.1,0.6-0.2,1.5,0.4,1.7c0.2,0.1,0.4,0.1,0.6,0.1l5,0c0.6,0,1.1,0,1.7-0.2
				c1.4-0.5,2-2.1,2.4-3.5c0.7-2.8,0.9-5.6,0.7-8.4c0-0.4-0.1-0.9-0.3-1.3c-1.1-1.7-1.2,0.8-1.2,1.4C32.5,37,32.5,38.3,32.4,39.5z"
				/>
			<path id="Path_596_1_" class="st42" d="M14.6,47.1c0,0.9,0.1,1.8,0.5,2.7c0.7,1.4,2,2.3,3.5,2.7c1.5,0.3,3,0.5,4.5,0.3
				c0.2,0,0.4,0,0.6,0.1c0.1,0.1,0.2,0.3,0.2,0.5c0.1,0.6,0.2,1.5-0.4,1.7c-0.2,0.1-0.4,0.1-0.6,0.1l-5,0c-0.6,0-1.1,0-1.7-0.2
				c-1.4-0.5-2-2.1-2.4-3.5C13,48.9,12.8,46,13,43.2c0-0.4,0.1-0.9,0.3-1.3c1.1-1.7,1.2,0.8,1.2,1.4C14.5,44.6,14.5,45.9,14.6,47.1z
				"/>
		</g>
		<g id="Group_453_1_" transform="translate(866.899 23.945)">
			<path id="Path_597_1_" class="st43" d="M7.4,52.7c-2.6-6.7-3.3-14-2.3-21.1c1.2-7.3,4.9-13.8,10.5-18.6c0.4-0.4,0.9-0.7,1.5-0.8
				c0.6,0,1.3,0.2,1.8,0.5c3.5,2.2,6.2,5.5,7.6,9.5C27.8,26,28.6,30,28.7,34c0.3,3.2,0.2,6.4-0.2,9.6c-1,6.2-4,11.9-8.5,16.3
				c-2.3,2.2-4.6,5.1-7.3,2.4C10.1,59.8,8.5,55.9,7.4,52.7z"/>
			<path id="Path_598_1_" class="st44" d="M16.1,46.6c4.3-3.5,6.6-8.7,8.4-13.8c-0.7,5.3-3,10.3-6.5,14.4c-0.8,1.1-2.1,1.9-3.4,2.2
				c-1-2.7-2.3-5.2-3.6-7.8c-0.8-1.7-3-7-3.2-9.7c1.1,1.9,3,7.1,4.1,9.1C12.2,41.4,15.9,46.8,16.1,46.6z"/>
			<path id="Path_599_1_" class="st45" d="M16.7,38c2.8-2.3,4.3-5.7,5.5-9c-0.4,3.5-1.9,6.7-4.2,9.3c-0.5,0.7-1.3,1.3-2.2,1.4
				c-0.6-1.8-1.5-3.4-2.3-5.1c-1-2-1.7-4.1-2.1-6.3c0.7,1.2,1.9,4.6,2.7,5.9C14.8,35.6,15.7,36.9,16.7,38z"/>
			<path id="Path_600_1_" class="st46" d="M16.4,29.8c2-1.6,3.1-4.1,3.9-6.4c-0.3,2.5-1.4,4.8-3,6.7c-0.4,0.5-0.9,0.9-1.6,1
				c-0.4-1.3-1.1-2.4-1.6-3.6c-0.7-1.4-1.2-2.9-1.5-4.5c0.5,0.9,1.4,3.3,1.9,4.2C15.1,28.1,15.7,29,16.4,29.8z"/>
			<path id="Path_601_1_" class="st47" d="M16.5,22.4c1.2-1.1,2.1-2.6,2.6-4.2c-0.2,1.6-0.9,3.2-2,4.4c-0.3,0.4-0.6,0.6-1,0.7
				c-0.3-0.8-0.7-1.6-1.1-2.4c-0.4-0.9-0.8-1.9-1-2.9c0.3,0.6,0.9,2.2,1.3,2.8C15.6,21.2,16,21.8,16.5,22.4z"/>
			<path id="Path_602_1_" class="st48" d="M17.4,32.4c-0.1-4.9,0-9.7-1-14.5c-0.4,7.9-1,15.7-1.7,23.6c-0.4,5.1-0.9,10.1-1.1,15.2
				c-0.1,5.5-1.5,14.7-0.8,20.2c0.4,3.7,3.2,2.7,6.5,1.3c-0.1-5.8,0-12.4-0.5-18.2c-0.5-5.9-0.9-11.8-1.1-17.7
				C17.5,38.9,17.4,35.6,17.4,32.4z"/>
			<path id="Path_603_1_" class="st48" d="M16.1,55.8c4.3-3.5,6.6-8.7,8.4-13.8c-0.7,5.3-3,10.3-6.5,14.4c-0.8,1.1-2.1,1.9-3.4,2.2
				c-1-2.7-2.3-5.2-3.6-7.8c-0.8-1.7-3-7-3.2-9.7c1.1,1.9,3,7.1,4.1,9.1C12.2,50.6,15.9,56,16.1,55.8z"/>
		</g>
		<g id="Group_454_1_" transform="translate(775.051 210.28)">
			<path id="Path_604_1_" class="st3" d="M14.7,34.2c-0.8-0.9-1.2-2-1.1-3.2c0.2-1.4,1.1-2.7,0.7-4c-0.2-0.8-0.7-1.4-0.9-2.1
				c-0.2-1.3,0.1-2.5,0.7-3.6c0.5-1.1,0.9-2.5,0.4-3.6c-0.4-0.8-1.2-1.5-0.9-2.3c0.1-0.2,0.2-0.4,0.3-0.6l1.8-2.6
				c-0.5,1.2-0.4,2.6,0.3,3.7c0.2,0.3,0.4,0.7,0.6,1c0.6,1.3-0.1,2.9,0.3,4.3c0.3,1.1,1.3,2.1,1.4,3.2c0.1,1.3-1,2.4-1.2,3.7
				c0,0.9,0.1,1.8,0.5,2.7c0.3,0.9,0.3,1.8-0.1,2.7"/>
			<path id="Path_605_1_" class="st3" d="M14.3,35.1c0.9-0.4,1.4-1.2,1.4-2.2c0-0.4-0.1-0.7-0.1-1.1c0.1-1.1,0.7-2.1,1.6-2.7
				c0.5-0.3,0.9-0.8,1.1-1.4c0-0.4,0-0.8,0-1.3c0.1-1.1,1.4-1.9,2.5-2c0.4,0,0.8-0.1,1.3-0.2c0.6-0.3,1.3-0.7,1.8-1.2
				c1.4-0.9,3.2-1.1,4.7-0.4c0.4,0.2,0.8,0.4,1.3,0.3c0.1-0.1,0.3-0.1,0.5-0.1c0.3,0,0.5,0.1,0.7,0.3l1.7,1.4
				c-1.5-0.4-3.2-0.3-4.6,0.3c-0.5,0.2-1,0.5-1.2,1.1c0,0.2-0.1,0.3-0.1,0.5c-0.3,0.4-0.7,0.6-1.1,0.7c-0.8,0.2-1.6,0.5-2.3,0.9
				c-0.7,0.4-1.2,1.2-1.3,2c0,0.2,0,0.4,0,0.6c-0.2,0.6-0.7,1.1-1.4,1.2c-0.6,0.1-1.2,0.3-1.8,0.6c-0.6,0.6-1,1.3-1.1,2.1
				c-0.2,0.8-0.7,1.5-1.4,1.8"/>
			<path id="Path_606_1_" class="st49" d="M41,13.4c-0.9-0.2-1.8-0.4-2.7-0.7c-0.9-0.3-1.9-0.4-2.8-0.1c-0.2,0.1-0.3,0.2-0.4,0.3
				c-0.1,0.1-0.1,0.3-0.2,0.4c-0.2,0.3-0.7,0.4-1.1,0.4s-0.9,0.2-0.9,0.6c0,0.2,0,0.3,0,0.5c-0.1,0.4-0.7,0.6-1.1,0.6
				c-0.6,0-1.2,0.1-1.7,0.4s-1,0.7-1.1,1.3c-0.1,0.3,0,0.7-0.1,1c-0.2,0.5-0.6,0.9-1.1,1.1s-1,0.4-1.5,0.6c-1.3,1-1.8,2.6-1.3,4.1"
				/>
			<path id="Path_607_1_" class="st49" d="M15.3,12.5c-0.5,0.7-0.8,1.4-0.9,2.3c0,1.4,1.3,2.6,1.3,4.1c0,1.2-0.9,2.2-0.8,3.4
				c0.1,1.3,1.3,2.4,1.2,3.6c-0.1,1-1,1.8-1,2.8c0,0.7,0.2,1.4,0.5,2.1c0.3,1.1,0.3,2.3-0.1,3.4"/>
			<path id="Path_608_1_" class="st50" d="M13.6,49.8c0.1,0,0.1-0.1,0.1-0.2c-0.1-0.5-0.3-1-0.5-1.4"/>
			<path id="Path_609_1_" class="st50" d="M12.8,49.7l-0.2-0.3"/>
			<path id="Path_610_1_" class="st50" d="M18.2,49.4c0.1-1.1,0.4-2.2,1-3.1"/>
			<path id="Path_611_1_" class="st50" d="M19,49.2c0-0.3,0.1-0.6,0.3-0.8"/>
			<path id="Path_612_1_" class="st50" d="M20.1,49.6c0.1-0.2,0.2-0.4,0.3-0.6"/>
			<path id="Path_613_1_" class="st51" d="M16.9,49.7c0.2-2.4,0.1-4.8-0.3-7.1c-0.2-0.9-0.3-1.8-0.3-2.8c0-1.6,0.7-3.2,0.9-4.8
				c0.1-0.6,0-1.1-0.2-1.7c-0.3-0.5-0.8-0.9-1-1.5c-0.4-1,0.4-2.1,0.1-3.2c-0.5-1.6-3-1.6-3.8-3c-0.3-0.6-0.3-1.2-0.6-1.8
				c-0.3-0.5-0.6-0.9-1.1-1.2l-5.9-5.2c-0.1,1.8,2.3,2.7,2.8,4.4c0.5,1.6-0.6,3.5,0.4,4.8c0.6,0.8,1.8,1,2.5,1.7
				c1.3,1.2,0.8,3.4,1.7,4.9c0.7,1.2,2.1,1.8,2.8,3c0.4,0.9,0.6,1.9,0.5,2.9c0,3.5,0,7.1,0.1,10.6C15.4,55.2,16.5,50.3,16.9,49.7z"
				/>
		</g>
		<g id="Group_455_1_" transform="translate(1103.139 115.841)">
			<line id="Line_126_1_" class="st52" x1="9.5" y1="25.6" x2="11.3" y2="28.6"/>
			<line id="Line_127_1_" class="st52" x1="25.2" y1="24.8" x2="24.1" y2="28.9"/>
			<path id="Path_614_1_" class="st53" d="M20.5,16.3c-0.5-0.4-0.8-1-0.9-1.6c-0.2-1.1,1.7-1.8,1.8,0.1c0.3-0.2,0.6-0.3,1-0.2
				c0.5,0.2,0.5,0.8,0.3,1.4c0.3,0.3,0.4,0.8,0.1,1.2c-0.1,0.1-0.2,0.2-0.4,0.3L20.5,16.3z"/>
			<path id="Path_615_1_" class="st53" d="M30.1,21.8c0-1.2,0.3-2.1,1.3-2.2s1.4,0.7,0.9,2c0,0,0.9,0.1,1.2-0.4v0.6
				c0.4,0,0.9-0.2,1.1-0.6v0.6c0,0,0.6,0.1,1.2-1.1s0.7-5.2-2.9-6.2c-2.1-0.6-4.4,0.6-5,2.8c-0.2,0.8-0.2,1.7,0.1,2.5
				c0.2,1,0.6,1.9,1,2.9L30.1,21.8z"/>
			<path id="Path_616_1_" class="st54" d="M29.4,21.5c0,0-1.3-4.5,2-4.5c2.8,0,2.3,4,2.3,4"/>
			<path id="Path_617_1_" class="st55" d="M30.1,21.8l-7.3-3c0,0-0.5-3.2-1.5-3.3S20,16.6,20,16.6l-1.4,0.2l1.4,0.3
				c0,0-1.4,7.3,4.4,9.1c2.6,0.6,5.1-1.1,5.7-3.7C30.1,22.2,30.1,22,30.1,21.8z"/>
			<path id="Path_618_1_" class="st53" d="M20,17.1c0,0-1.6,1-0.8,1.7C20.1,19.4,20.4,18.1,20,17.1z"/>
			<ellipse id="Ellipse_30_1_" class="st56" cx="21" cy="16.4" rx="0.2" ry="0.3"/>
			<path id="Path_619_1_" class="st57" d="M28.6,22.6c-0.9,1.6-4.1,2.2-5.5,0.8c-0.7-0.6-0.9-1.6-0.6-2.5c0.1-0.5,0.6-0.8,1.1-0.6
				c0,0,0.1,0,0.1,0l3.4,1.3"/>
			<path id="Path_620_1_" class="st57" d="M23.2,21.7c0.3,1.3,3,2.1,4.9,0.5"/>
			<line id="Line_128_1_" class="st52" x1="26.6" y1="25.3" x2="26" y2="29.3"/>
			<path id="Path_621_1_" class="st58" d="M20.8,29.4c0,0.3-1.3,0.5-2.8,0.5s-2.8-0.2-2.8-0.5s1.3-0.5,2.8-0.5S20.8,29.1,20.8,29.4z
				"/>
			<path id="Path_622_1_" class="st59" d="M6.4,17.9c0,0,8.4,6.1,9.5,6.6c0.8,0.3,1.3,1.1,1.1,2l0.3,0.7l-0.7-0.6
				c-1.4-0.3-2.8-0.7-4.1-1.3c0,0-1.9,2.3-4.9,0.1C4.7,23.3,6.4,17.9,6.4,17.9z"/>
			<path id="Path_623_1_" class="st53" d="M16.6,26.6c0,0-1.7,1.4-1.5-0.4L16.6,26.6z"/>
			<path id="Path_624_1_" class="st53" d="M17.1,26.1c0.6-0.5,0.9-1.3,0.6-2C17.4,22.8,16.4,23.6,17.1,26.1z"/>
			<ellipse id="Ellipse_31_1_" class="st56" cx="16.5" cy="25.8" rx="0.1" ry="0.2"/>
			<path id="Path_625_1_" class="st52" d="M7.8,20.4l3.6,2.9c0.3,0.2,0.3,0.6,0.1,0.8c0,0.1-0.1,0.1-0.1,0.1
				c-0.8,0.6-1.9,0.6-2.7,0.1c-1-0.6-1.6-1.9-1.4-3.1"/>
			<path id="Path_626_1_" class="st52" d="M7.9,21.9c0,1,0.8,1.9,1.8,1.9c0.5,0,1-0.2,1.4-0.6"/>
			<path id="Path_627_1_" class="st56" d="M8.3,19.5c1.1-2.8-0.3-6.1-3.1-7.2c-0.1-0.1-0.3-0.1-0.4-0.2c0,0-0.3,0.3,0,1.1
				c-0.3,0.5-0.3,1.1,0.1,1.5c0,0-0.4,0,0,1.1c0,0-0.8,0.4,1.5,2.1L8.3,19.5z"/>
			<line id="Line_129_1_" class="st52" x1="7.9" y1="25.3" x2="9" y2="28.9"/>
			<path id="Path_628_1_" class="st58" d="M29,29.2c0,0.1-0.3,0.2-0.7,0.2s-0.7-0.1-0.7-0.2s0.3-0.2,0.7-0.2S29,29.1,29,29.2z"/>
			<path id="Path_629_1_" class="st58" d="M13.3,29.7c0,0.1-0.4,0.1-0.8,0.1s-0.8-0.1-0.8-0.1s0.4-0.1,0.8-0.1S13.3,29.6,13.3,29.7z
				"/>
			<path id="Path_630_1_" class="st58" d="M21.8,27.3c0,0.1-0.4,0.2-1,0.2s-1-0.1-1-0.2s0.4-0.2,1-0.2S21.8,27.2,21.8,27.3z"/>
			<path id="Path_631_1_" class="st58" d="M16.5,31.7c-1.9,0.3-3.8,0.3-5.7,0C12.6,31.3,14.6,31.3,16.5,31.7z"/>
		</g>
		<g id="Group_456_1_" transform="translate(1054.815 270.174)">
			<path id="Path_633_1_" class="st18" d="M16.5,44.3l-0.9,9.4l0.9,0.6c0,0,0.3,1.2-1.2,0.9L14,53.7l0.3-0.9v-4.3l-1.5-5.1
				L16.5,44.3z"/>
			<path id="Path_634_1_" class="st18" d="M7.1,43.7L8,53.1l-0.9,0.6c0,0-0.3,1.2,1.2,0.9l1.2-1.5l-0.3-0.9v-4.3l1.5-5.2L7.1,43.7z"
				/>
			<ellipse id="Ellipse_32_1_" class="st18" cx="11.8" cy="19" rx="4.5" ry="5.3"/>
			<path id="Path_635_1_" class="st19" d="M14.6,15.6L12.7,17l-6.5,0.5l1.1-3l-1.1-0.8h1.9l1.6-1.6l4.9,0.5l3.2,3.5v3.8l-2.7-0.5
				v-1.9L14.6,15.6z"/>
			<ellipse id="Ellipse_33_1_" class="st18" cx="16.4" cy="19.7" rx="0.9" ry="1.1"/>
			<path id="Path_636_1_" class="st18" d="M13.5,23.2v2.2h-2.4l0.5-2.2H13.5z"/>
			<ellipse id="Ellipse_34_1_" class="st18" cx="12.3" cy="26.7" rx="2.6" ry="2.2"/>
			<path id="Path_637_1_" class="st18" d="M13.3,24.7l3.7,1.7c0.3,0.2,0.6,0.5,0.8,0.8l1.9,6.8l-1.6,5.7l-1.4-0.5l0.5-5.7l-1.1-4.1
				v8.6H7.6l0.5-10.3c0,0,0-2.6,3.6-3.1"/>
			<path id="Path_638_1_" class="st18" d="M8.9,26.1l-4.3,4.4l2.7,5.2l0.8-2.1L7,30.8l2.7-2.4L8.9,26.1z"/>
			<path id="Path_639_1_" class="st20" d="M16.2,39.9l0.5,5.5c0,0-2.7-1.6-4.6,0l-0.8-2.7l-0.5,2.7L6,45.1l1.3-6.2
				C7.3,38.9,14.3,37.4,16.2,39.9z"/>
			<path id="Path_640_1_" class="st60" d="M15.4,25.7c0,0-0.3,3.7-3.2,4c0,0-2.7-0.9-1.8-4.6l-1.2,0.3c0,0,1.3,4.6-1.3,5.8l-1.2,8.8
				c0,0,5.9-1.1,9.7,0v-7.8c0,0-2.7-2.4-0.3-6.1L15.4,25.7z"/>
			<path id="Path_641_1_" class="st18" d="M18.1,39.7v1.9L17,42.9l-0.8-1.4l0.5-1.4v-0.5l-0.5,1.1c0,0-0.5-0.4,0.3-1.3l0.5-0.9
				L18.1,39.7z"/>
		</g>
		<g id="Group_461_1_" transform="translate(1081.524 288.653)">
			<path id="Path_604-2_1_" class="st3" d="M14.7,34.2c-0.8-0.9-1.2-2-1.1-3.2c0.2-1.4,1.1-2.7,0.7-4c-0.2-0.8-0.7-1.4-0.9-2.1
				c-0.2-1.3,0.1-2.5,0.7-3.6c0.5-1.1,0.9-2.5,0.4-3.6c-0.4-0.8-1.2-1.5-0.9-2.3c0.1-0.2,0.2-0.4,0.3-0.6l1.8-2.6
				c-0.5,1.2-0.4,2.6,0.3,3.7c0.2,0.3,0.4,0.7,0.6,1c0.6,1.3-0.1,2.9,0.3,4.3c0.3,1.1,1.3,2.1,1.4,3.2c0.1,1.3-1,2.4-1.2,3.7
				c0,0.9,0.1,1.8,0.5,2.7c0.3,0.9,0.3,1.8-0.1,2.7"/>
			<path id="Path_605-2_1_" class="st3" d="M14.3,35.1c0.9-0.4,1.4-1.2,1.4-2.2c0-0.4-0.1-0.7-0.1-1.1c0.1-1.1,0.7-2.1,1.6-2.7
				c0.5-0.3,0.9-0.8,1.1-1.4c0-0.4,0-0.8,0-1.3c0.1-1.1,1.4-1.9,2.5-2c0.4,0,0.8-0.1,1.3-0.2c0.6-0.3,1.3-0.7,1.8-1.2
				c1.4-0.9,3.2-1.1,4.7-0.4c0.4,0.2,0.8,0.4,1.3,0.3c0.1-0.1,0.3-0.1,0.5-0.1c0.3,0,0.5,0.1,0.7,0.3l1.7,1.4
				c-1.5-0.4-3.2-0.3-4.6,0.3c-0.5,0.2-1,0.5-1.2,1.1c0,0.2-0.1,0.3-0.1,0.5c-0.3,0.4-0.7,0.6-1.1,0.7c-0.8,0.2-1.6,0.5-2.3,0.9
				c-0.7,0.4-1.2,1.2-1.3,2c0,0.2,0,0.4,0,0.6c-0.2,0.6-0.7,1.1-1.4,1.2c-0.6,0.1-1.2,0.3-1.8,0.6c-0.6,0.6-1,1.3-1.1,2.1
				c-0.2,0.8-0.7,1.5-1.4,1.8"/>
			<path id="Path_606-2_1_" class="st49" d="M32,24.4c-0.9-0.2-1.8-0.4-2.7-0.7c-0.9-0.3-1.9-0.4-2.8-0.1c-0.2,0.1-0.3,0.2-0.4,0.3
				c-0.1,0.1-0.1,0.3-0.2,0.4c-0.2,0.3-0.7,0.4-1.1,0.4s-0.9,0.2-0.9,0.6c0,0.2,0,0.3,0,0.5c-0.1,0.4-0.7,0.6-1.1,0.6
				c-0.6,0-1.2,0.1-1.7,0.4s-1,0.7-1.1,1.3c-0.1,0.3,0,0.7-0.1,1c-0.2,0.5-0.6,0.9-1.1,1.1c-0.5,0.2-1,0.4-1.5,0.6
				c-1.3,1-1.8,2.6-1.3,4.1"/>
			<path id="Path_607-2_1_" class="st49" d="M15.3,12.5c-0.5,0.7-0.8,1.4-0.9,2.3c0,1.4,1.3,2.6,1.3,4.1c0,1.2-0.9,2.2-0.8,3.4
				c0.1,1.3,1.3,2.4,1.2,3.6c-0.1,1-1,1.8-1,2.8c0,0.7,0.2,1.4,0.5,2.1c0.3,1.1,0.3,2.3-0.1,3.4"/>
			<path id="Path_608-2_1_" class="st50" d="M13.6,49.8c0.1,0,0.1-0.1,0.1-0.2c-0.1-0.5-0.3-1-0.5-1.4"/>
			<path id="Path_609-2_1_" class="st50" d="M12.8,49.7l-0.2-0.3"/>
			<path id="Path_610-2_1_" class="st50" d="M18.2,49.4c0.1-1.1,0.4-2.2,1-3.1"/>
			<path id="Path_611-2_1_" class="st50" d="M19,49.2c0-0.3,0.1-0.6,0.3-0.8"/>
			<path id="Path_612-2_1_" class="st50" d="M20.1,49.6c0.1-0.2,0.2-0.4,0.3-0.6"/>
			<path id="Path_613-2_1_" class="st51" d="M16.9,49.7c0.2-2.4,0.1-4.8-0.3-7.1c-0.2-0.9-0.3-1.8-0.3-2.8c0-1.6,0.7-3.2,0.9-4.8
				c0.1-0.6,0-1.1-0.2-1.7c-0.3-0.5-0.8-0.9-1-1.5c-0.4-1,0.4-2.1,0.1-3.2c-0.5-1.6-3-1.6-3.8-3c-0.3-0.6-0.3-1.2-0.6-1.8
				c-0.3-0.5-0.6-0.9-1.1-1.2l-5.9-5.2c-0.1,1.8,2.3,2.7,2.8,4.4c0.5,1.6-0.6,3.5,0.4,4.8c0.6,0.8,1.8,1,2.5,1.7
				c1.3,1.2,0.8,3.4,1.7,4.9c0.7,1.2,2.1,1.8,2.8,3c0.4,0.9,0.6,1.9,0.5,2.9c0,3.5,0,7.1,0.1,10.6C15.4,55.2,16.5,50.3,16.9,49.7z"
				/>
		</g>
	</g>
	<g id="Group_120_1_" transform="translate(221.949 499.577)">
		<path id="Path_130_1_" class="st18" d="M12.1,83.5l2.1,21.4l-2.1,1.4c0,0-0.7,2.8,2.8,2.1l2.8-3.5l-0.7-2.1v-9.7l3.5-11.8
			L12.1,83.5z"/>
		<path id="Path_131_1_" class="st18" d="M33.5,82.1l-2.1,21.4l2.1,1.4c0,0,0.7,2.8-2.8,2.1l-2.8-3.5l0.7-2.1v-9.7L25.2,80
			L33.5,82.1z"/>
		<ellipse id="Ellipse_10_1_" class="st18" cx="22.8" cy="25.9" rx="10.2" ry="12"/>
		<path id="Path_132_1_" class="st19" d="M33.3,20.3v7.1c0,0-14.1-0.8-16.5-7.1c0,0,1.8,6.7-3.8,8.1l-2.5-4.9c0,0-2.3-7.8,5.5-9.4
			C16,14,26.2,6.9,33.3,20.3z"/>
		<path id="Path_133_1_" class="st18" d="M18.8,35.4v4.9h5.5l-1.2-4.9H18.8z"/>
		<ellipse id="Ellipse_11_1_" class="st18" cx="21.5" cy="43.4" rx="5.9" ry="4.9"/>
		<path id="Path_134_1_" class="st18" d="M19.2,38.9l-8.4,3.9c-0.8,0.4-1.4,1.1-1.8,1.9L4.6,60L8.3,73l3.1-1.2l-1.2-12.9l2.5-9.2
			v19.7h19.7l-1.2-23.4c0,0,0-6-8.3-7"/>
		<path id="Path_135_1_" class="st18" d="M29.2,42l9.9,10.1l-6.3,11.8l-1.7-4.8l2.4-6.4l-6.1-5.6L29.2,42z"/>
		<path id="Path_136_1_" class="st20" d="M12.6,73.4l-1.2,12.5c0,0,6.2-3.7,10.5,0l1.9-6.2l1.2,6.2L36,85.3l-3.1-14.2
			C32.9,71.1,16.9,67.7,12.6,73.4z"/>
		<path id="Path_137_1_" class="st18" d="M8.3,73v4.3l2.5,3.1l1.9-3.1l-1.2-3.1V73l1.2,2.5c0,0,1.2-0.9-0.6-2.9l-1.2-2L8.3,73z"/>
		<ellipse id="Ellipse_12_1_" class="st18" cx="12.3" cy="27.4" rx="2.1" ry="2.5"/>
		<path id="Path_138_1_" class="st61" d="M25.2,39.6c0,0-2.6,4.3-9,0.7c0,0-7.2-0.5-8,5l-2.3,5.5l5.6,3.9l1.5-3.1l-2.4,24.3
			l24.3-1.6l-2.4-21.2l-1.4-2.9l2.9-3.3l-0.8-1.6l-3.9-4.7C29.4,40.6,25.7,38.5,25.2,39.6z"/>
		<path id="Path_139_1_" class="st62" d="M30.1,50.8l2.4,19.6l-3.4,0.1l4.2,1.4l-4.7,0.9l5,0.2l-2.6-0.2l3.1-0.8l-3.8-1.3l3-0.3
			L30.1,50.8z"/>
	</g>
	<g id="Group_121_1_" transform="translate(340.932 590.877)">
		<path id="Path_475_1_" class="st31" d="M44.6,50.3l37.9-14.8l0.5,1.3L44.6,51.6V50.3z"/>
		<path id="Path_476_1_" class="st63" d="M8,48.8l13-0.9l-0.8,1.4l-1.8-0.1l1.2,1.4l-15,0.9l0.3-1.2l1.6-0.4L6.6,48l1.5-0.9L8,48.8z
			"/>
		<path id="Path_477_1_" class="st63" d="M38.1,46.8l12.2-4.4l-0.4,1.5l-1.7,0.3l1.5,1l-14.2,4.9l-0.1-1.2l1.4-0.8l-0.3-1.7l1.2-1.3
			L38.1,46.8z"/>
		<path id="Path_478_1_" class="st35" d="M19.3,47.2l12.8,2.4L31,50.7l-1.7-0.6l0.8,1.6l-14.7-2.9l0.6-1.1l1.7,0l0.6-1.7l1.7-0.5
			L19.3,47.2z"/>
		<path id="Path_479_1_" class="st35" d="M8.8,46.1l12.8,2.4l-1.1,1.1L18.7,49l0.8,1.6L4.8,47.7l0.6-1.1l1.7,0L7.7,45l1.7-0.5
			L8.8,46.1z"/>
		<path id="Path_480_1_" class="st63" d="M29.3,45l12.8,2.4L41,48.5l-1.7-0.6l0.8,1.6l-14.7-2.9l0.6-1.1l1.7,0l0.6-1.7l1.7-0.5
			L29.3,45z"/>
		<path id="Path_481_1_" class="st64" d="M22,47.8l12.4-4l-0.5,1.5l-1.7,0.3l1.5,1.1l-14.3,4.4l0-1.2l1.5-0.8l-0.3-1.7l1.2-1.3
			L22,47.8z"/>
		<path id="Path_482_1_" class="st64" d="M35.4,42.2l11.6,5.7l-1.4,0.8l-1.4-1l0.4,1.8l-13.4-6.8l0.9-0.9l1.6,0.5l1-1.4l1.8-0.1
			L35.4,42.2z"/>
		<g id="Group_444_1_" transform="translate(62.432)">
			<path id="Path_483_1_" class="st18" d="M14.5,29.9l2.2,5l2.8,0.6H20l-2.8,1.1L15.6,36l-2.2-2.8L14.5,29.9z"/>
			<path id="Path_484_1_" class="st18" d="M16.7,59.4v7.8l2.2,1.1l-1.7,1.1L15,67.2l-0.6-7.8H16.7z"/>
			<path id="Path_485_1_" class="st18" d="M12.2,58.3v7.8l2.2,1.1l-1.7,1.1l-2.2-2.2L10,58.3H12.2z"/>
			<g id="Group_443_1_" transform="translate(0 2.479)">
				<path id="Path_486_1_" class="st18" d="M15,22l-1.6,3.2l-2.9-2.9l3.1-3.3L15,22z"/>
				<path id="Path_487_1_" class="st33" d="M11.1,22.1c0,0,0.9,2.8,3.5,2.3l0.1,6.2l4.8,26.4c0,0-9.9,4.1-13.3,0l-0.8-7.8
					c0,0-2.9-19.6,3.4-28.6C8.7,20.5,10.7,19.5,11.1,22.1z"/>
				<path id="Path_488_1_" class="st18" d="M20.1,14.4c0,0,1.5,3.3,1.2,5.1l0.9,1.4c0,0-0.3,0.5-1.3,0c0,0-1.2,2.9-5.1,2.5
					c0,0-6.8-4.1-4.5-8.7C11.3,14.7,14.2,9.1,20.1,14.4"/>
			</g>
			<path id="Path_489_1_" class="st19" d="M21.7,19.4h-4.4l-1.1-2.2L15,19.4v-2.2l-1.7,0.6l-2.2-0.6l1.7-3.3l3.9-1.7l0.6,1.1
				l1.1-1.1v1.7l3.9,2.2l0.6,2.8L21.7,19.4z"/>
			<path id="Path_490_1_" class="st19" d="M12.8,16.6l-1.1,5.3l-2.3-2.6l-0.6-2.8l1.7,0.6l-1.1-1.7l1.7-1.1l2.3-0.8L12.8,16.6z"/>
			<path id="Path_492_1_" class="st22" d="M6.8,27.4c0,0-1.6,7,1.9,10.3c0,0,0-2,2.8-2.4C11.5,35.3,10.6,27.1,6.8,27.4z"/>
		</g>
		<path id="Path_493_1_" class="st31" d="M20.1,48.8l28.9-3.3L48,70l-36.2,1.1l-5-21.1L20.1,48.8z"/>
		<path id="Path_494_1_" class="st65" d="M17.9,65.5c-2.8,0-5,2.2-5,5s2.2,5,5,5s5-2.2,5-5C22.9,67.8,20.7,65.5,17.9,65.5L17.9,65.5
			z M17.9,75c-2.5,0-4.4-2-4.4-4.4c0-2.5,2-4.4,4.4-4.4s4.4,2,4.4,4.4l0,0C22.4,73,20.4,75,17.9,75L17.9,75z"/>
		<path id="Path_495_1_" class="st65" d="M21.3,67.2l-3.3,3.3l4.3,1.3l-0.7,1.4l-3.5-2.2V75l-1.6-0.3l1-3.6l-3.9,0.6l0.1-1.8
			l3.8,0.6l-1.3-4l1.3-0.4v4.4l2.5-4L21.3,67.2z"/>
		<circle id="Ellipse_28_1_" class="st65" cx="17.9" cy="70.5" r="1.1"/>
		<path id="Path_496_1_" class="st65" d="M40.2,65.5c-2.8,0-5,2.2-5,5s2.2,5,5,5c2.8,0,5-2.2,5-5C45.2,67.8,42.9,65.5,40.2,65.5
			L40.2,65.5z M40.2,75c-2.5,0-4.4-2-4.4-4.4c0-2.5,2-4.4,4.4-4.4s4.4,2,4.4,4.4l0,0C44.6,73,42.6,75,40.2,75z"/>
		<path id="Path_497_1_" class="st65" d="M43.5,67.2l-3.3,3.3l4.3,1.3l-0.7,1.4l-3.5-2.2V75l-1.6-0.3l1-3.6l-3.9,0.6l0.1-1.8
			l3.8,0.6l-1.3-4l1.3-0.4v4.4l2.5-4L43.5,67.2z"/>
		<circle id="Ellipse_29_1_" class="st65" cx="40.2" cy="70.5" r="1.1"/>
		<line id="Line_125_1_" class="st66" x1="7.2" y1="55.3" x2="48.3" y2="50.7"/>
		<path id="Path_498_1_" class="st18" d="M81.9,36l-1.1,0.6l0.6,1.1l1.7-1.1L81.9,36z"/>
		<path id="Path_499_1_" class="st31" d="M45.7,53.8l38.9-18.4l0.6,1.7L45.7,55.5V53.8z"/>
		<path id="Path_500_1_" class="st18" d="M72.4,34.4l3.9,3.9l4.4-0.6l1.4,0.9l-1.4,0.8l-1.1-0.6l-5,1.1l-3.9-3.3L72.4,34.4z"/>
	</g>
	<path id="Path_1658_1_" class="st67" d="M535.3,399L277.1,685.2H161L474.6,399L535.3,399z"/>
</g>
</svg>
